<svg width="396" height="207" viewBox="0 0 396 207" fill="var(--icon-color, #BEBEBE)"
    xmlns="http://www.w3.org/2000/svg">
    <path
        d="M84.456 2.24L0 105.119v1.656h84.663V143h2.07v-36.225h31.257v-2.07H86.733V2.24h-2.277zm.207 102.465H3.105l81.558-99.36v99.36zM138.223 72.62c0 42.435 19.665 72.45 60.03 72.45s60.03-30.015 60.03-72.45c0-42.642-19.665-72.45-60.03-72.45s-60.03 29.808-60.03 72.45zm117.99 0c0 41.4-18.837 70.38-57.96 70.38-39.123 0-57.96-28.98-57.96-70.38 0-41.4 18.837-70.38 57.96-70.38 39.123 0 57.96 28.98 57.96 70.38zM361.804 2.24l-84.456 102.879v1.656h84.663V143h2.07v-36.225h31.257v-2.07h-31.257V2.24h-2.277zm.207 102.465h-81.558l81.558-99.36v99.36zM14.376 204.64c-1.024 1.035-2.33 1.552-3.92 1.552-1.59 0-2.896-.517-3.92-1.552C5.512 203.595 5 202.272 5 200.672s.512-2.917 1.536-3.952c1.024-1.045 2.33-1.568 3.92-1.568 1.59 0 2.896.523 3.92 1.568 1.024 1.035 1.536 2.352 1.536 3.952s-.512 2.923-1.536 3.968zm-3.92-.112c1.056 0 1.91-.363 2.56-1.088.65-.736.976-1.659.976-2.768 0-1.12-.325-2.043-.976-2.768-.65-.725-1.504-1.088-2.56-1.088-1.067 0-1.925.363-2.576 1.088-.64.725-.96 1.648-.96 2.768 0 1.12.32 2.043.96 2.768.65.725 1.51 1.088 2.576 1.088zM91.218 195.328h1.872V206H80.114v-10.672h1.872v9.024h3.68v-9.024h1.872v9.024h3.68v-9.024zM159.572 206h-1.808v-10.672h1.872v7.408l5.456-7.408h1.92V206h-1.872v-7.616L159.572 206zM231.68 195.328h7.312v1.648h-5.44v2.336h2.816c1.077 0 1.925.325 2.544.976.629.64.944 1.429.944 2.368 0 .949-.315 1.744-.944 2.384-.619.64-1.467.96-2.544.96h-4.688v-10.672zm4.432 5.632h-2.56v3.392h2.56c.533 0 .971-.155 1.312-.464.341-.309.512-.72.512-1.232s-.171-.923-.512-1.232c-.341-.309-.779-.464-1.312-.464zM312.502 206h-2.304l-3.584-4.496-.928 1.088V206h-1.872v-10.672h1.872v5.088l4.176-5.088h2.32l-4.336 5.04 4.656 5.632zM385.752 206h-2.128l-.784-2.048h-4.896L377.16 206h-2.128l4.192-10.672h2.336L385.752 206zm-3.44-3.696l-1.92-5.088-1.92 5.088h3.84z" />
</svg>