<svg width="16" height="17" viewBox="0 0 16 17" fill="none" xmlns="http://www.w3.org/2000/svg">
<path fill-rule="evenodd" clip-rule="evenodd" d="M9.25 2.11835C9.25 1.70413 9.58579 1.36835 10 1.36835H14C14.4142 1.36835 14.75 1.70413 14.75 2.11835V6.11835C14.75 6.53256 14.4142 6.86835 14 6.86835C13.5858 6.86835 13.25 6.53256 13.25 6.11835V2.86835H10C9.58579 2.86835 9.25 2.53256 9.25 2.11835Z" fill="white"/>
<path fill-rule="evenodd" clip-rule="evenodd" d="M2 9.36835C2.41421 9.36835 2.75 9.70413 2.75 10.1183V13.3683H6C6.41421 13.3683 6.75 13.7041 6.75 14.1183C6.75 14.5326 6.41421 14.8683 6 14.8683H2C1.58579 14.8683 1.25 14.5326 1.25 14.1183V10.1183C1.25 9.70413 1.58579 9.36835 2 9.36835Z" fill="white"/>
<path fill-rule="evenodd" clip-rule="evenodd" d="M14.5303 1.58802C14.8232 1.88091 14.8232 2.35578 14.5303 2.64868L9.86395 7.31508C9.57106 7.60797 9.09618 7.60797 8.80329 7.31508C8.51039 7.02218 8.51039 6.54731 8.80329 6.25442L13.4697 1.58802C13.7626 1.29512 14.2375 1.29512 14.5303 1.58802Z" fill="white"/>
<path d="M2 14.1184L6.6664 9.45197L2 14.1184Z" fill="white"/>
<path fill-rule="evenodd" clip-rule="evenodd" d="M7.19673 8.92164C7.48962 9.21453 7.48962 9.6894 7.19673 9.9823L2.53033 14.6487C2.23744 14.9416 1.76256 14.9416 1.46967 14.6487C1.17678 14.3558 1.17678 13.8809 1.46967 13.588L6.13607 8.92164C6.42896 8.62874 6.90384 8.62874 7.19673 8.92164Z" fill="white"/>
</svg>
