<svg width="55" height="55" viewBox="0 0 55 55" fill="none" xmlns="http://www.w3.org/2000/svg">
<path d="M44.3488 9.34259H41.9343C41.8636 9.33445 41.792 9.34064 41.7237 9.36078C41.6555 9.38093 41.592 9.41461 41.537 9.45983C41.4821 9.50505 41.4368 9.56088 41.4039 9.62399C41.371 9.68709 41.3512 9.75618 41.3456 9.82712V17.6352C41.3456 17.9582 41.73 18.1278 42.1265 18.1278C42.523 18.1278 42.9074 17.9598 42.9074 17.6352V14.8444H44.2527C45.8387 14.8444 47.0791 14.0877 47.0791 12.1173V12.0454C47.0759 10.075 45.8743 9.34259 44.3488 9.34259ZM45.5141 12.2376C45.5141 13.1744 45.0336 13.6193 44.2527 13.6193H42.9074V10.7122H44.2527C45.0336 10.7122 45.5141 11.1563 45.5141 12.0939V12.2376Z" fill="white"/>
<path d="M37.676 36.5891C37.3708 36.4211 37.0704 36.2378 36.7821 36.0424L32.121 32.893C30.7126 31.9392 29.0502 31.4303 27.3492 31.4322H18.7942C17.6769 31.4292 16.57 31.6473 15.5374 32.0739C14.5047 32.5005 13.5667 33.1271 12.7772 33.9178C11.9535 34.7393 11.0091 35.4302 9.97666 35.9665C9.61213 36.1556 9.32167 36.4616 9.15182 36.8355C8.98197 37.2094 8.94258 37.6295 9.03996 38.0284C9.13735 38.4273 9.36586 38.782 9.68888 39.0356C10.0119 39.2892 10.4107 39.4269 10.8213 39.4268H13.739C13.9217 39.4206 14.0949 39.3437 14.222 39.2122C14.3491 39.0808 14.4201 38.9051 14.4201 38.7222C14.4201 38.5394 14.3491 38.3637 14.222 38.2322C14.0949 38.1008 13.9217 38.0238 13.739 38.0176H10.8222C10.7272 38.0177 10.6349 37.9858 10.5602 37.9272C10.4855 37.8686 10.4327 37.7865 10.4101 37.6943C10.3876 37.602 10.3967 37.5048 10.436 37.4184C10.4753 37.3319 10.5424 37.2611 10.6267 37.2174C11.7877 36.6152 12.8498 35.8391 13.7761 34.9159C14.435 34.256 15.218 33.7329 16.0799 33.3769C16.9418 33.0208 17.8657 32.8388 18.7982 32.8413H20.708V38.0168H18.3662C18.1834 38.023 18.0103 38.1 17.8832 38.2314C17.7561 38.3629 17.6851 38.5386 17.6851 38.7214C17.6851 38.9043 17.7561 39.0799 17.8832 39.2114C18.0103 39.3429 18.1834 39.4198 18.3662 39.426H37.6906C37.969 39.426 38.236 39.3154 38.4329 39.1185C38.6298 38.9216 38.7404 38.6546 38.7404 38.3762C38.7392 38.0103 38.6398 37.6515 38.4525 37.3371C38.2653 37.0228 37.9972 36.7645 37.676 36.5891ZM22.1188 38.0184V32.8445H27.3492C28.769 32.8431 30.1565 33.2679 31.332 34.0639L35.9931 37.2133C36.3161 37.4322 36.6545 37.6381 36.9969 37.8271C37.0836 37.8746 37.1584 37.9412 37.2157 38.0217L22.1188 38.0184Z" fill="#E94200"/>
<path d="M51.8561 39.1007L51.6332 38.7317C51.2167 38.0422 50.6612 37.447 50.0021 36.984C49.3429 36.521 48.5946 36.2004 47.8047 36.0426L45.9853 35.6808V22.2401H50.6932C51.1594 22.2397 51.6063 22.0544 51.9359 21.7248C52.2655 21.3952 52.4508 20.9483 52.4512 20.4821V6.75801C52.4508 6.29189 52.2655 5.84498 51.9359 5.51538C51.6063 5.18578 51.1594 5.00043 50.6932 5H36.9723C36.5062 5.00043 36.0593 5.18578 35.7297 5.51538C35.4001 5.84498 35.2148 6.29189 35.2143 6.75801V11.9642C35.2205 12.147 35.2975 12.3201 35.4289 12.4472C35.5604 12.5743 35.7361 12.6453 35.9189 12.6453C36.1018 12.6453 36.2774 12.5743 36.4089 12.4472C36.5404 12.3201 36.6173 12.147 36.6235 11.9642V6.75801C36.6235 6.66549 36.6602 6.57676 36.7257 6.51133C36.7911 6.44591 36.8798 6.40915 36.9723 6.40915H50.7005C50.793 6.40915 50.8818 6.44591 50.9472 6.51133C51.0126 6.57676 51.0494 6.66549 51.0494 6.75801V20.4862C51.0494 20.5787 51.0126 20.6674 50.9472 20.7328C50.8818 20.7983 50.793 20.835 50.7005 20.835H36.9723C36.8798 20.835 36.7911 20.7983 36.7257 20.7328C36.6602 20.6674 36.6235 20.5787 36.6235 20.4862V16.5454C36.6173 16.3626 36.5404 16.1895 36.4089 16.0624C36.2774 15.9353 36.1018 15.8643 35.9189 15.8643C35.7361 15.8643 35.5604 15.9353 35.4289 16.0624C35.2975 16.1895 35.2205 16.3626 35.2143 16.5454V20.4821C35.2148 20.9483 35.4001 21.3952 35.7297 21.7248C36.0593 22.0544 36.5062 22.2397 36.9723 22.2401H42.311V34.9492L41.3759 34.7635C40.1568 34.4494 39.0086 33.9066 37.9923 33.1637L33.3312 30.0143C31.5657 28.8187 29.4819 28.1806 27.3497 28.1828H18.7947C17.3942 28.1791 16.0069 28.4525 14.7126 28.9872C13.4183 29.5218 12.2425 30.3073 11.253 31.2983C9.98097 32.5673 8.36699 33.4386 6.60808 33.8057L5.59624 34.0173C4.86336 34.1734 4.20603 34.5758 3.73367 35.1574C3.2613 35.7391 3.00238 36.465 3 37.2143L3 44.0396C3.0002 44.4386 3.11602 44.8289 3.33343 45.1634C3.55084 45.4979 3.86054 45.7623 4.22504 45.9244L7.03204 47.1721C7.23059 48.2056 7.77224 49.1419 8.56926 49.8291C9.36629 50.5164 10.372 50.9145 11.4235 50.9589C12.475 51.0033 13.5107 50.6914 14.3628 50.0737C15.2149 49.456 15.8335 48.5688 16.1185 47.5557H39.5209C39.7964 48.5365 40.385 49.4004 41.1969 50.0157C42.0089 50.6311 42.9997 50.9641 44.0185 50.9641C45.0373 50.9641 46.0282 50.6311 46.8401 50.0157C47.6521 49.4004 48.2406 48.5365 48.5161 47.5557H49.8534C50.5463 47.555 51.2106 47.2795 51.7005 46.7896C52.1904 46.2997 52.466 45.6353 52.4666 44.9425V41.2868C52.4656 40.5161 52.2545 39.7604 51.8561 39.1007ZM43.7201 22.2401H44.5786V35.3998L43.7201 35.2294V22.2401ZM13.9292 48.5958C13.3874 49.1346 12.6738 49.4664 11.9126 49.5334C11.1514 49.6003 10.3908 49.3982 9.76326 48.9623C9.13569 48.5263 8.68087 47.8841 8.47796 47.1474C8.27506 46.4107 8.33692 45.6262 8.65277 44.9304L8.66569 44.9013C8.68265 44.8658 8.70042 44.8302 8.71818 44.7947L8.74402 44.7454C8.76017 44.7148 8.77713 44.6849 8.7949 44.6542L8.83124 44.592C8.84739 44.5654 8.86354 44.5387 8.8805 44.5113L8.92814 44.441C8.94429 44.4176 8.95964 44.395 8.97579 44.3724C8.99194 44.3497 9.01455 44.3207 9.03393 44.2916C9.05331 44.2625 9.06462 44.2512 9.07996 44.2318C9.0953 44.2125 9.1276 44.1753 9.15183 44.1511L9.19301 44.1034C9.22908 44.0636 9.26596 44.0246 9.30365 43.9864L9.31334 43.9767L9.33595 43.9557C9.36825 43.9242 9.40055 43.8927 9.43366 43.8628L9.46031 43.8402C9.49342 43.8111 9.52653 43.782 9.56044 43.7538L9.57014 43.7465C10.152 43.2766 10.8774 43.0203 11.6253 43.0203C12.3733 43.0203 13.0986 43.2766 13.6805 43.7465H13.6845C13.7209 43.7764 13.7564 43.8071 13.7919 43.8386L13.8113 43.8555C13.8522 43.8927 13.8924 43.9309 13.9317 43.9702C13.9745 44.013 14.0124 44.0566 14.0552 44.101C14.073 44.1204 14.0891 44.1406 14.1061 44.16C14.123 44.1794 14.1473 44.2084 14.1675 44.2327C14.1876 44.2569 14.2111 44.2884 14.2329 44.3134L14.2684 44.3611C14.2942 44.3966 14.3193 44.4327 14.3435 44.4693L14.3556 44.4878C14.7679 45.1171 14.9505 45.8693 14.8729 46.6176C14.7952 47.3659 14.4619 48.0646 13.9292 48.5958ZM46.3277 48.5958C45.7563 49.1668 44.9935 49.5058 44.1867 49.5472C43.38 49.5886 42.5865 49.3295 41.9596 48.82C41.3327 48.3105 40.9169 47.5868 40.7925 46.7886C40.6682 45.9904 40.8441 45.1744 41.2862 44.4983L41.2983 44.4806C41.3226 44.444 41.3476 44.4079 41.3734 44.3724L41.409 44.3255C41.43 44.2973 41.4518 44.269 41.4744 44.2448C41.497 44.2205 41.5148 44.1963 41.5349 44.1721C41.5551 44.1479 41.5689 44.1317 41.5866 44.1123C41.6262 44.0679 41.6674 44.0243 41.7102 43.9815C42.3226 43.3691 43.1532 43.025 44.0193 43.025C44.8854 43.025 45.7161 43.3691 46.3285 43.9815C46.3713 44.0243 46.4092 44.0679 46.452 44.1123C46.4698 44.1317 46.486 44.1519 46.5029 44.1721C46.5199 44.1923 46.5441 44.2205 46.5643 44.2448C46.5845 44.269 46.6079 44.3005 46.6297 44.3255L46.6652 44.3732C46.6911 44.4087 46.7161 44.445 46.7403 44.4814L46.7524 44.5C47.1616 45.128 47.3427 45.8775 47.2654 46.6231C47.188 47.3687 46.857 48.0651 46.3277 48.5958ZM51.0566 44.9417C51.0568 45.2611 50.9302 45.5675 50.7046 45.7936C50.479 46.0197 50.1728 46.1469 49.8534 46.1473H48.693C48.6669 45.1256 48.3025 44.1415 47.6569 43.3492L47.644 43.333C47.6036 43.2838 47.5632 43.2362 47.5196 43.1885L47.4873 43.1514C47.4421 43.1021 47.3961 43.0536 47.3492 43.006L47.3258 42.981C46.7299 42.3819 45.9819 41.9567 45.1624 41.7511C44.4872 41.5835 43.7833 41.5664 43.1008 41.701C42.195 41.8806 41.3633 42.3262 40.7121 42.981L40.6894 43.0052C40.6418 43.0528 40.5958 43.1021 40.5506 43.1514L40.5199 43.1869C40.4771 43.2353 40.4351 43.2838 40.3947 43.333L40.3826 43.3484C39.736 44.1406 39.3708 45.1251 39.3441 46.1473H16.2945C16.2675 45.1242 15.9014 44.1391 15.2536 43.3468L15.2447 43.3355C15.2019 43.2838 15.1583 43.2329 15.1131 43.182L15.0889 43.1538C15.035 43.0956 14.9812 43.0386 14.9273 42.9826C14.0495 42.108 12.8608 41.617 11.6217 41.617C10.3825 41.617 9.19388 42.108 8.31603 42.9826C8.26435 43.0343 8.21347 43.0884 8.16421 43.1441L8.12141 43.1925C8.08642 43.2318 8.05223 43.2717 8.01885 43.3121L7.97444 43.3662C7.93998 43.4092 7.90634 43.4528 7.8735 43.497L7.84523 43.5333C7.75694 43.6539 7.67619 43.7783 7.60297 43.9064L7.59651 43.9169C7.55936 43.9799 7.52383 44.0437 7.48992 44.1083V44.1139C7.24436 44.5821 7.0805 45.0887 7.00539 45.6119L4.80889 44.6356C4.69351 44.5843 4.59549 44.5005 4.52669 44.3946C4.4579 44.2887 4.42128 44.1651 4.42127 44.0388V37.2143C4.4228 36.7886 4.57002 36.3763 4.83844 36.0459C5.10685 35.7155 5.48029 35.4869 5.89664 35.3982L6.90849 35.1866C8.93469 34.7637 10.7939 33.76 12.2592 32.298C13.1168 31.439 14.1356 30.7578 15.2571 30.2936C16.3787 29.8293 17.5808 29.5912 18.7947 29.5928H27.3497C29.2006 29.5907 31.0095 30.1444 32.5422 31.182L37.2033 34.3314C38.3736 35.1811 39.6968 35.797 41.1005 36.1452L47.5325 37.4259C48.13 37.5454 48.696 37.7879 49.1946 38.1381C49.6932 38.4884 50.1133 38.9386 50.4284 39.4601L50.6512 39.83C50.916 40.2706 51.0556 40.7751 51.055 41.2892L51.0566 44.9417Z" fill="#E94200"/>
<path d="M12.8303 45.0755C12.5907 44.836 12.2855 44.6729 11.9532 44.6068C11.6209 44.5408 11.2765 44.5748 10.9636 44.7044C10.6506 44.8341 10.3831 45.0537 10.1949 45.3354C10.0067 45.6171 9.90625 45.9482 9.90625 46.287C9.90625 46.6258 10.0067 46.9569 10.1949 47.2386C10.3831 47.5203 10.6506 47.7399 10.9636 47.8696C11.2765 47.9992 11.6209 48.0332 11.9532 47.9672C12.2855 47.9011 12.5907 47.738 12.8303 47.4985C12.9908 47.3402 13.1182 47.1516 13.2052 46.9436C13.2921 46.7356 13.3369 46.5124 13.3369 46.287C13.3369 46.0616 13.2921 45.8384 13.2052 45.6304C13.1182 45.4224 12.9908 45.2338 12.8303 45.0755ZM12.0323 46.7005C11.9507 46.7814 11.847 46.8362 11.7343 46.8582C11.6215 46.8802 11.5048 46.8684 11.3988 46.8241C11.2928 46.7799 11.2022 46.7053 11.1385 46.6097C11.0748 46.5142 11.0408 46.4019 11.0408 46.287C11.0408 46.1721 11.0748 46.0598 11.1385 45.9642C11.2022 45.8687 11.2928 45.7941 11.3988 45.7498C11.5048 45.7056 11.6215 45.6938 11.7343 45.7158C11.847 45.7378 11.9507 45.7926 12.0323 45.8735C12.0871 45.9275 12.1306 45.9917 12.1604 46.0627C12.1902 46.1336 12.2056 46.2097 12.2058 46.2866C12.206 46.3635 12.1909 46.4397 12.1615 46.5107C12.132 46.5818 12.0888 46.6463 12.0343 46.7005H12.0323Z" fill="white"/>
<path d="M45.3117 44.9928C45.0124 44.6935 44.6185 44.5073 44.1973 44.4658C43.776 44.4244 43.3534 44.5303 43.0015 44.7655C42.6496 45.0006 42.3901 45.3506 42.2672 45.7557C42.1444 46.1607 42.1658 46.5959 42.3278 46.9869C42.4898 47.378 42.7824 47.7008 43.1558 47.9003C43.5291 48.0998 43.96 48.1637 44.3752 48.081C44.7903 47.9984 45.164 47.7744 45.4325 47.4472C45.701 47.1199 45.8477 46.7097 45.8477 46.2864C45.8483 46.0461 45.8013 45.808 45.7093 45.586C45.6173 45.3639 45.4821 45.1623 45.3117 44.9928ZM44.4594 46.7285C44.3576 46.8299 44.2237 46.8929 44.0807 46.9067C43.9376 46.9205 43.7942 46.8844 43.6748 46.8044C43.5554 46.7244 43.4674 46.6055 43.4258 46.4679C43.3842 46.3303 43.3916 46.1826 43.4466 46.0499C43.5017 45.9171 43.6011 45.8075 43.7278 45.7398C43.8546 45.672 44.0009 45.6503 44.1418 45.6783C44.2828 45.7062 44.4097 45.7822 44.501 45.8932C44.5923 46.0042 44.6423 46.1434 44.6425 46.2871C44.6426 46.3691 44.6264 46.4504 44.595 46.5261C44.5636 46.6018 44.5175 46.6706 44.4594 46.7285Z" fill="white"/>
</svg>
