<svg width="45" height="45" viewBox="0 0 45 45" fill="none" xmlns="http://www.w3.org/2000/svg">
    <path fill-rule="evenodd" clip-rule="evenodd"
        d="M10.5681 9.10986H34.862C35.2777 9.10986 35.6764 9.27367 35.9703 9.56526C36.2642 9.85684 36.4294 10.2523 36.4294 10.6647V37.874C36.4294 38.2863 36.2642 38.6818 35.9703 38.9734C35.6764 39.265 35.2777 39.4288 34.862 39.4288H10.5681C10.1525 39.4288 9.75379 39.265 9.45986 38.9734C9.16592 38.6818 9.00079 38.2863 9.00079 37.874V10.6647C9.00079 10.2523 9.16592 9.85684 9.45986 9.56526C9.75379 9.27367 10.1525 9.10986 10.5681 9.10986V9.10986Z"
        stroke="#E84E0E" stroke-linecap="round" stroke-linejoin="round" />
    <path
        d="M29.374 6.00011V12.2194M16.0516 6.00011V12.2194V6.00011ZM16.0516 24.6579V32.432V24.6579ZM19.1863 28.5449H21.5373H19.1863Z"
        stroke="var(--color-main-text, #ffffff)" stroke-linecap="round" stroke-linejoin="round" />
    <path d="M9.00079 17.6613H36.4294" stroke="#E84E0E" stroke-linecap="round" stroke-linejoin="round" />
    <path
        d="M29.3786 32.4319H24.6766C27.0276 30.1059 29.3786 28.2782 29.3786 26.99C29.3786 26.3715 29.1309 25.7783 28.69 25.3409C28.2491 24.9035 27.6511 24.6578 27.0276 24.6578C26.4041 24.6578 25.8061 24.9035 25.3652 25.3409C24.9243 25.7783 24.6766 26.3715 24.6766 26.99"
        stroke="var(--color-main-text, #ffffff)" stroke-linecap="round" stroke-linejoin="round" />
</svg>