<svg width="45" height="45" viewBox="0 0 45 45" fill="none" xmlns="http://www.w3.org/2000/svg">
    <path d="M7 29.7079H34.7719M17.4145 39.9997H24.3574V34.1186H17.4145V39.9997ZM15.3316 39.9997H26.4403H15.3316Z"
        stroke="#E84E0E" stroke-linecap="round" stroke-linejoin="round" />
    <path
        d="M34.7719 22.969V32.3948C34.7719 33.2799 34.081 33.9959 33.2291 33.9959H8.54273C7.69083 33.9959 7 33.2799 7 32.3948V15.0134C7 14.1283 7.69083 13.4123 8.54273 13.4123H28.3302"
        stroke="#E84E0E" stroke-linecap="round" stroke-linejoin="round" />
    <path
        d="M25.9487 22.181H16.1211M42.2624 14.7758C43.0527 13.9216 43.4967 12.763 43.4967 11.5549C43.4967 10.3469 43.0527 9.18833 42.2624 8.33411C41.4721 7.47989 40.4002 7 39.2826 7C38.1649 7 37.093 7.47989 36.3027 8.33411L31.5644 13.4556V19.9048H37.5311L42.2624 14.7758ZM39.2861 11.5587L29.4585 22.181L39.2861 11.5587ZM39.988 16.8699H34.3723H39.988Z"
        stroke="var(--icon-color, #ffffff)" stroke-linecap="round" stroke-linejoin="round" />
</svg>