<svg width="50" height="50" viewBox="0 0 50 50" fill="none" xmlns="http://www.w3.org/2000/svg">
    <path
        d="M15.7069 22.2598H20.6635V32.9989H15.7069C15.4879 32.9989 15.2777 32.9119 15.1228 32.7569C14.9679 32.602 14.8809 32.3919 14.8809 32.1728V23.0859C14.8809 22.8668 14.9679 22.6566 15.1228 22.5017C15.2777 22.3468 15.4879 22.2598 15.7069 22.2598V22.2598Z"
        stroke="var(--icon-color, #ffffff)" stroke-linecap="round" stroke-linejoin="round" />
    <path
        d="M20.6636 22.2609L24.794 14C25.2279 14 25.6576 14.0855 26.0585 14.2515C26.4594 14.4176 26.8237 14.661 27.1305 14.9678C27.4374 15.2747 27.6808 15.6389 27.8468 16.0398C28.0129 16.4407 28.0984 16.8704 28.0984 17.3043V19.7826H34.4877C34.7219 19.7826 34.9535 19.8324 35.1671 19.9288C35.3806 20.0251 35.5712 20.1657 35.7263 20.3414C35.8813 20.517 35.9972 20.7236 36.0663 20.9474C36.1354 21.1713 36.1561 21.4073 36.1271 21.6397L34.888 31.5528C34.838 31.9523 34.6438 32.3199 34.342 32.5864C34.0401 32.8529 33.6512 33 33.2485 33H20.6636"
        stroke="var(--icon-color, #ffffff)" stroke-linecap="round" stroke-linejoin="round" />
</svg>