<svg width="15" height="15" fill="none" xmlns="http://www.w3.org/2000/svg">
    <path
        d="M12.638 6.385a.53.53 0 00-.038-.01l-1.603-.402-2.027-1.52a.543.543 0 00-.326-.109H5.79a.543.543 0 00-.384.16L2.15 7.761a.543.543 0 000 .768l.358.358a.543.543 0 00.723.04L5.566 7.06v2.172l-.543 2.715-1.314 1.315a.543.543 0 00-.068.685l.51.766a.543.543 0 00.792.123l2.11-1.688a.543.543 0 00.187-.292l.499-1.995 1.086 1.63.869 2.167a.543.543 0 00.747.284l1.187-.593a.543.543 0 00.256-.7l-1.43-3.33-1.086-1.63-.087-1.63 1.173.544 1.683.42a.543.543 0 00.647-.355l.2-.597a.543.543 0 00-.346-.686z"
        fill="var(--icon-color, #ffffff)" />
    <path d="M7.195 4.345a2.172 2.172 0 100-4.345 2.172 2.172 0 000 4.345z" fill="var(--icon-color, #ffffff)" />
</svg>