<svg width="20" height="20" viewBox="0 0 20 20" fill="none" xmlns="http://www.w3.org/2000/svg">
    <path fill-rule="evenodd" clip-rule="evenodd"
        d="M13.1872 6.66268C13.9957 7.41089 14.495 8.45229 14.495 9.59167C14.495 11.4963 13.1036 13.1078 11.2127 13.5969L11.5579 14H14.4007C15.394 13.0106 16 11.6812 16 10.2308C16 7.82581 14.3347 5.77122 12.0159 5L10 10.215L7.98415 5C5.6653 5.77122 4 7.82507 4 10.2308C4 11.6804 4.60675 13.0098 5.59934 14H8.43595L8.7865 13.5969H8.78036C6.88954 13.1078 5.49808 11.4963 5.49808 9.59167C5.49808 8.45229 5.99744 7.41682 6.80593 6.66268C6.88341 6.57658 7.03759 6.53056 7.1864 6.55357C7.33521 6.58252 7.47788 6.67975 7.54922 6.89278L9.77295 12.7461C9.84429 12.7521 9.92176 12.7521 9.99923 12.7521C10.0767 12.7521 10.148 12.7521 10.2255 12.7461L12.4492 6.88685C12.5091 6.7139 12.6333 6.59885 12.7822 6.55876C12.9141 6.53056 13.0568 6.55951 13.1872 6.66268Z"
        fill="var(--icon-color, #ffffff)" />
</svg>