<svg width="18" height="18" viewBox="0 0 18 18" fill="none" xmlns="http://www.w3.org/2000/svg">
<path d="M9 9L17 9" stroke="white" stroke-width="1.5" stroke-miterlimit="10" stroke-linecap="round" stroke-linejoin="round"/>
<path d="M1 9L5 9" stroke="white" stroke-width="1.5" stroke-miterlimit="10" stroke-linecap="round" stroke-linejoin="round"/>
<path d="M7.00053 11C8.10539 11 9.00105 10.1046 9.00105 9C9.00105 7.89543 8.10539 7 7.00053 7C5.89567 7 5 7.89543 5 9C5 10.1046 5.89567 11 7.00053 11Z" stroke="white" stroke-width="1.5" stroke-miterlimit="10" stroke-linecap="round" stroke-linejoin="round"/>
<path d="M1 4H13" stroke="white" stroke-width="1.5" stroke-miterlimit="10" stroke-linecap="round" stroke-linejoin="round"/>
<path d="M15.0005 6C16.1054 6 17.0011 5.10457 17.0011 4C17.0011 2.89543 16.1054 2 15.0005 2C13.8957 2 13 2.89543 13 4C13 5.10457 13.8957 6 15.0005 6Z" stroke="white" stroke-width="1.5" stroke-miterlimit="10" stroke-linecap="round" stroke-linejoin="round"/>
<path d="M1 14H13" stroke="white" stroke-width="1.5" stroke-miterlimit="10" stroke-linecap="round" stroke-linejoin="round"/>
<path d="M15.0005 16C16.1054 16 17.0011 15.1046 17.0011 14C17.0011 12.8954 16.1054 12 15.0005 12C13.8957 12 13 12.8954 13 14C13 15.1046 13.8957 16 15.0005 16Z" stroke="white" stroke-width="1.5" stroke-miterlimit="10" stroke-linecap="round" stroke-linejoin="round"/>
</svg>
