<?xml version="1.0" encoding="utf-8"?><svg viewBox="0 0 84 450" xmlns="http://www.w3.org/2000/svg" xmlns:xlink="http://www.w3.org/1999/xlink"><style>:root>svg{display:none}:root>svg:target{display:block}</style><svg fill="none" viewBox="0 0 20 20" id="arrow" xmlns="http://www.w3.org/2000/svg"><path d="M8.882 13l3-3-3-3" stroke="var(--icon-color, #ffffff)" stroke-miterlimit="10" stroke-linecap="round" stroke-linejoin="round"/></svg><svg fill="none" viewBox="0 0 18 15" id="arrow-full" xmlns="http://www.w3.org/2000/svg"><path fill-rule="evenodd" clip-rule="evenodd" d="M10.47 1.588a.75.75 0 011.06 0l5 5a.75.75 0 010 1.06l-5 5a.75.75 0 11-1.06-1.06l4.47-4.47-4.47-4.47a.75.75 0 010-1.06z" fill="var(--icon-color, #ffffff)"/><path fill-rule="evenodd" clip-rule="evenodd" d="M1.25 7.118a.75.75 0 01.75-.75l14 .002a.75.75 0 110 1.5L2 7.868a.75.75 0 01-.75-.75z" fill="var(--icon-color, #ffffff)"/></svg><svg fill="none" viewBox="0 0 16 17" id="arrow-two" xmlns="http://www.w3.org/2000/svg"><path fill-rule="evenodd" clip-rule="evenodd" d="M9.25 2.118a.75.75 0 01.75-.75h4a.75.75 0 01.75.75v4a.75.75 0 01-1.5 0v-3.25H10a.75.75 0 01-.75-.75zM2 9.368a.75.75 0 01.75.75v3.25H6a.75.75 0 010 1.5H2a.75.75 0 01-.75-.75v-4a.75.75 0 01.75-.75z" fill="#fff"/><path fill-rule="evenodd" clip-rule="evenodd" d="M14.53 1.588a.75.75 0 010 1.06L9.864 7.316a.75.75 0 01-1.06-1.06l4.666-4.667a.75.75 0 011.06 0z" fill="#fff"/><path d="M2 14.118l4.666-4.666L2 14.118z" fill="#fff"/><path fill-rule="evenodd" clip-rule="evenodd" d="M7.197 8.922a.75.75 0 010 1.06L2.53 14.65a.75.75 0 11-1.06-1.061l4.666-4.666a.75.75 0 011.06 0z" fill="#fff"/></svg><svg fill="none" viewBox="0 0 20 20" id="cross" xmlns="http://www.w3.org/2000/svg"><path d="M10 10.057l-3 3.018m3-3.018L7 7.04m3 3.017l3-3.017m-3 3.017l3 3.018" stroke="#fff" stroke-width="1.5" stroke-miterlimit="10" stroke-linecap="round" stroke-linejoin="round"/></svg><svg fill="none" viewBox="0 0 20 20" id="geo-point" xmlns="http://www.w3.org/2000/svg"><path fill-rule="evenodd" clip-rule="evenodd" d="M10 15s4-2.572 4-5.714C14 6.919 12.21 5 10 5S6 6.919 6 9.286C6 12.143 10 15 10 15zm0-4a2 2 0 100-4 2 2 0 000 4z" fill="#fff"/></svg><svg fill="none" viewBox="0 0 21 20" id="ok" xmlns="http://www.w3.org/2000/svg"><path d="M18.951 2.697L9.877 12.873 7.05 9.768" stroke="#202021" stroke-width="3" stroke-linecap="round" stroke-linejoin="round"/><path d="M18.951 2.697L9.877 12.873 7.05 9.768" stroke="#fff" stroke-width="1.5" stroke-linecap="round" stroke-linejoin="round"/></svg><svg fill="none" viewBox="0 0 84 450" id="slider-arrow" xmlns="http://www.w3.org/2000/svg"><path d="M4 0l80 225L4 450H1l80-225L1 0h3z" fill="#FC4C02"/><path d="M1 0l80 225L1 450H0V0h1z" fill="var(--icon-color, #ffffff)"/></svg></svg>