<?xml version="1.0" encoding="utf-8"?><svg viewBox="0 0 396 450" xmlns="http://www.w3.org/2000/svg" xmlns:xlink="http://www.w3.org/1999/xlink"><style>:root>svg{display:none}:root>svg:target{display:block}</style><svg fill="var(--icon-color, #BEBEBE)" viewBox="0 0 396 207" id="404" xmlns="http://www.w3.org/2000/svg"><path d="M84.456 2.24L0 105.119v1.656h84.663V143h2.07v-36.225h31.257v-2.07H86.733V2.24h-2.277zm.207 102.465H3.105l81.558-99.36v99.36zm53.56-32.085c0 42.435 19.665 72.45 60.03 72.45s60.03-30.015 60.03-72.45c0-42.642-19.665-72.45-60.03-72.45s-60.03 29.808-60.03 72.45zm117.99 0c0 41.4-18.837 70.38-57.96 70.38-39.123 0-57.96-28.98-57.96-70.38 0-41.4 18.837-70.38 57.96-70.38 39.123 0 57.96 28.98 57.96 70.38zM361.804 2.24l-84.456 102.879v1.656h84.663V143h2.07v-36.225h31.257v-2.07h-31.257V2.24h-2.277zm.207 102.465h-81.558l81.558-99.36v99.36zM14.376 204.64c-1.024 1.035-2.33 1.552-3.92 1.552-1.59 0-2.896-.517-3.92-1.552C5.512 203.595 5 202.272 5 200.672s.512-2.917 1.536-3.952c1.024-1.045 2.33-1.568 3.92-1.568 1.59 0 2.896.523 3.92 1.568 1.024 1.035 1.536 2.352 1.536 3.952s-.512 2.923-1.536 3.968zm-3.92-.112c1.056 0 1.91-.363 2.56-1.088.65-.736.976-1.659.976-2.768 0-1.12-.325-2.043-.976-2.768-.65-.725-1.504-1.088-2.56-1.088-1.067 0-1.925.363-2.576 1.088-.64.725-.96 1.648-.96 2.768 0 1.12.32 2.043.96 2.768.65.725 1.51 1.088 2.576 1.088zm80.762-9.2h1.872V206H80.114v-10.672h1.872v9.024h3.68v-9.024h1.872v9.024h3.68v-9.024zM159.572 206h-1.808v-10.672h1.872v7.408l5.456-7.408h1.92V206h-1.872v-7.616L159.572 206zm72.108-10.672h7.312v1.648h-5.44v2.336h2.816c1.077 0 1.925.325 2.544.976.629.64.944 1.429.944 2.368 0 .949-.315 1.744-.944 2.384-.619.64-1.467.96-2.544.96h-4.688v-10.672zm4.432 5.632h-2.56v3.392h2.56c.533 0 .971-.155 1.312-.464.341-.309.512-.72.512-1.232s-.171-.923-.512-1.232c-.341-.309-.779-.464-1.312-.464zm76.39 5.04h-2.304l-3.584-4.496-.928 1.088V206h-1.872v-10.672h1.872v5.088l4.176-5.088h2.32l-4.336 5.04 4.656 5.632zm73.25 0h-2.128l-.784-2.048h-4.896L377.16 206h-2.128l4.192-10.672h2.336L385.752 206zm-3.44-3.696l-1.92-5.088-1.92 5.088h3.84z"/></svg><svg fill="none" viewBox="0 0 20 20" id="arrow" xmlns="http://www.w3.org/2000/svg"><path d="M8.882 13l3-3-3-3" stroke="var(--icon-color, #ffffff)" stroke-miterlimit="10" stroke-linecap="round" stroke-linejoin="round"/></svg><svg fill="none" viewBox="0 0 18 15" id="arrow-full" xmlns="http://www.w3.org/2000/svg"><path fill-rule="evenodd" clip-rule="evenodd" d="M10.47 1.588a.75.75 0 011.06 0l5 5a.75.75 0 010 1.06l-5 5a.75.75 0 11-1.06-1.06l4.47-4.47-4.47-4.47a.75.75 0 010-1.06z" fill="var(--icon-color, #ffffff)"/><path fill-rule="evenodd" clip-rule="evenodd" d="M1.25 7.118a.75.75 0 01.75-.75l14 .002a.75.75 0 110 1.5L2 7.868a.75.75 0 01-.75-.75z" fill="var(--icon-color, #ffffff)"/></svg><svg fill="none" viewBox="0 0 16 17" id="arrow-two" xmlns="http://www.w3.org/2000/svg"><path fill-rule="evenodd" clip-rule="evenodd" d="M9.25 2.118a.75.75 0 01.75-.75h4a.75.75 0 01.75.75v4a.75.75 0 01-1.5 0v-3.25H10a.75.75 0 01-.75-.75zM2 9.368a.75.75 0 01.75.75v3.25H6a.75.75 0 010 1.5H2a.75.75 0 01-.75-.75v-4a.75.75 0 01.75-.75z" fill="#fff"/><path fill-rule="evenodd" clip-rule="evenodd" d="M14.53 1.588a.75.75 0 010 1.06L9.864 7.316a.75.75 0 01-1.06-1.06l4.666-4.667a.75.75 0 011.06 0z" fill="#fff"/><path d="M2 14.118l4.666-4.666L2 14.118z" fill="#fff"/><path fill-rule="evenodd" clip-rule="evenodd" d="M7.197 8.922a.75.75 0 010 1.06L2.53 14.65a.75.75 0 11-1.06-1.061l4.666-4.666a.75.75 0 011.06 0z" fill="#fff"/></svg><svg fill="none" viewBox="0 0 20 20" id="cross" xmlns="http://www.w3.org/2000/svg"><path d="M10 10.057l-3 3.018m3-3.018L7 7.04m3 3.017l3-3.017m-3 3.017l3 3.018" stroke="#fff" stroke-width="1.5" stroke-miterlimit="10" stroke-linecap="round" stroke-linejoin="round"/></svg><svg fill="none" viewBox="0 0 12 52" id="dual-range" xmlns="http://www.w3.org/2000/svg"><path d="M1 1l10 25.743L1 51" stroke="var(--icon-color, #727272)"/></svg><svg fill="none" viewBox="0 0 20 20" id="geo-point" xmlns="http://www.w3.org/2000/svg"><path fill-rule="evenodd" clip-rule="evenodd" d="M10 15s4-2.572 4-5.714C14 6.919 12.21 5 10 5S6 6.919 6 9.286C6 12.143 10 15 10 15zm0-4a2 2 0 100-4 2 2 0 000 4z" fill="var(--icon-color, #ffffff)"/></svg><svg fill="none" viewBox="0 0 45 45" id="hd-calendar" xmlns="http://www.w3.org/2000/svg"><path clip-rule="evenodd" d="M10.568 9.11h24.294c.416 0 .814.164 1.108.455.294.292.46.687.46 1.1v27.209c0 .412-.166.808-.46 1.1a1.574 1.574 0 01-1.108.455H10.568c-.415 0-.814-.164-1.108-.456A1.549 1.549 0 019 37.874v-27.21c0-.412.166-.807.46-1.099a1.574 1.574 0 011.108-.455v0z" stroke="#E84E0E" stroke-linecap="round" stroke-linejoin="round"/><path d="M29.374 6v6.22M16.052 6v6.22V6zm0 18.658v7.774-7.774zm3.134 3.887h2.351-2.35z" stroke="var(--icon-color, #ffffff)" stroke-linecap="round" stroke-linejoin="round"/><path d="M9 17.661h27.43" stroke="#E84E0E" stroke-linecap="round" stroke-linejoin="round"/><path d="M29.379 32.432h-4.702c2.35-2.326 4.702-4.154 4.702-5.442 0-.618-.248-1.212-.689-1.65a2.36 2.36 0 00-3.325 0 2.323 2.323 0 00-.688 1.65" stroke="var(--icon-color, #ffffff)" stroke-linecap="round" stroke-linejoin="round"/></svg><svg fill="none" viewBox="0 0 45 45" id="hd-doc" xmlns="http://www.w3.org/2000/svg"><path clip-rule="evenodd" d="M26.607 6H13.321C11.487 6 10 7.497 10 9.343v26.743c0 1.846 1.487 3.343 3.321 3.343H33.25c1.834 0 3.321-1.497 3.321-3.343V16.029L26.607 6z" stroke="#E84E0E" stroke-linecap="round" stroke-linejoin="round"/><path d="M26.703 6v9.877h9.87" stroke="#E84E0E" stroke-linecap="round" stroke-linejoin="round"/><path clip-rule="evenodd" d="M17.592 22.714h-.76.76zm0 6.838h-.76.76zm0-13.675h-.76.76zm12.906 6.837h-9.87 9.87zm0 6.838h-9.87 9.87zm-9.87-13.675h2.278-2.277z" stroke="var(--icon-color, #ffffff)" stroke-linecap="round" stroke-linejoin="round"/></svg><svg fill="none" viewBox="0 0 45 45" id="hd-percent" xmlns="http://www.w3.org/2000/svg"><path d="M28.287 17.143L17.145 28.285M18.337 20.326a1.99 1.99 0 100-3.98 1.99 1.99 0 000 3.98zM27.091 29.081a1.99 1.99 0 100-3.98 1.99 1.99 0 000 3.98z" stroke="var(--icon-color, #ffffff)" stroke-linecap="round" stroke-linejoin="round"/><path d="M22.714 39.429c9.231 0 16.715-7.484 16.715-16.715C39.429 13.484 31.945 6 22.714 6 13.484 6 6 13.483 6 22.714c0 9.231 7.483 16.715 16.714 16.715z" stroke="#E84E0E" stroke-linecap="round" stroke-linejoin="round"/></svg><svg fill="none" viewBox="0 0 45 45" id="hd-signature" xmlns="http://www.w3.org/2000/svg"><path d="M7 29.708h27.772M17.415 40h6.942v-5.881h-6.942v5.88zm-2.083 0H26.44 15.332zM34.772 22.969v9.426c0 .885-.691 1.6-1.543 1.6H8.543c-.852 0-1.543-.715-1.543-1.6V15.013c0-.885.69-1.6 1.543-1.6H28.33" stroke="#E84E0E" stroke-linecap="round" stroke-linejoin="round"/><path d="M25.949 22.181H16.12m26.141-7.405c.79-.854 1.235-2.013 1.235-3.221 0-1.208-.444-2.367-1.235-3.22C41.472 7.48 40.4 7 39.282 7c-1.117 0-2.189.48-2.98 1.334l-4.738 5.122v6.449h5.967l4.731-5.13zm-2.976-3.217L29.458 22.18l9.828-10.622zm.702 5.31h-5.616 5.616z" stroke="var(--icon-color, #ffffff)" stroke-linecap="round" stroke-linejoin="round"/></svg><svg fill="none" viewBox="0 0 10 5" id="icon-arrow" xmlns="http://www.w3.org/2000/svg"><path d="M1 1l4 3.158L9 1" stroke="var(--icon-color, #727272)" stroke-width="var(--icon-stroke, 1.5)" stroke-miterlimit="10" stroke-linecap="round" stroke-linejoin="round"/></svg><svg fill="none" viewBox="0 0 18 14" id="icon-arrow-full" xmlns="http://www.w3.org/2000/svg"><path d="M11 2l5 5-5 5M16 7.002L2 7" stroke="var(--icon-color, #727272)" stroke-width="var(--icon-stroke, 1.5)" stroke-miterlimit="10" stroke-linecap="round" stroke-linejoin="round"/></svg><svg fill="none" viewBox="0 0 50 50" id="lice" xmlns="http://www.w3.org/2000/svg"><path d="M15.707 22.26h4.956v10.739h-4.956a.826.826 0 01-.826-.826v-9.087a.826.826 0 01.826-.826v0zM20.664 22.26l4.13-8.26a3.305 3.305 0 013.304 3.304v2.479h6.39a1.652 1.652 0 011.64 1.857l-1.24 9.913A1.653 1.653 0 0133.248 33H20.665" stroke="var(--icon-color, #ffffff)" stroke-linecap="round" stroke-linejoin="round"/></svg><svg fill="none" viewBox="0 0 16 16" id="list" xmlns="http://www.w3.org/2000/svg"><path stroke="var(--icon-color, #E94200)" stroke-width="1.5" stroke-linecap="round" stroke-linejoin="round" d="M6 4h8M6 8h8m-8 4h8M2 4h1M2 8h1m-1 4h1"/></svg><svg fill="none" viewBox="0 0 15 15" id="little-man" xmlns="http://www.w3.org/2000/svg"><path d="M12.638 6.385a.53.53 0 00-.038-.01l-1.603-.402-2.027-1.52a.543.543 0 00-.326-.109H5.79a.543.543 0 00-.384.16L2.15 7.761a.543.543 0 000 .768l.358.358a.543.543 0 00.723.04L5.566 7.06v2.172l-.543 2.715-1.314 1.315a.543.543 0 00-.068.685l.51.766a.543.543 0 00.792.123l2.11-1.688a.543.543 0 00.187-.292l.499-1.995 1.086 1.63.869 2.167a.543.543 0 00.747.284l1.187-.593a.543.543 0 00.256-.7l-1.43-3.33-1.086-1.63-.087-1.63 1.173.544 1.683.42a.543.543 0 00.647-.355l.2-.597a.543.543 0 00-.346-.686z" fill="var(--icon-color, #ffffff)"/><path d="M7.195 4.345a2.172 2.172 0 100-4.345 2.172 2.172 0 000 4.345z" fill="var(--icon-color, #ffffff)"/></svg><svg fill="none" viewBox="0 0 50 50" id="mail" xmlns="http://www.w3.org/2000/svg"><path d="M15.668 18h18.667v13.222a.778.778 0 01-.778.778H16.446a.777.777 0 01-.778-.778V18z" stroke="var(--icon-color, #ffffff)" stroke-linecap="round" stroke-linejoin="round"/><path d="M34.335 18L25 26.556 15.668 18" stroke="var(--icon-color, #ffffff)" stroke-linecap="round" stroke-linejoin="round"/></svg><svg fill="none" viewBox="0 0 96 32" id="main-logo" xmlns="http://www.w3.org/2000/svg"><path d="M73.86 19.128a4.658 4.658 0 01-7.607-5.225 4.657 4.657 0 016.86-1.698l2.539-3.57a9.045 9.045 0 00-14.279 7.859 9.04 9.04 0 005.563 7.854 9.047 9.047 0 009.492-1.607l-2.569-3.613zM53.292 7.491l-2.53 3.56a4.972 4.972 0 012.916 8.55 4.973 4.973 0 01-3.424 1.367V3.03H46.04v3.927a9.044 9.044 0 00-9.043 9.04 9.04 9.04 0 009.043 9.041v4.071h4.21v-4.07a9.038 9.038 0 008.913-7.494A9.032 9.032 0 0053.29 7.493l.003-.002zM41.066 16a4.971 4.971 0 014.972-4.972v9.942A4.973 4.973 0 0141.066 16M83.619 24.676h-4.601V7.315h4.6v17.361zm.585-8.679l6.225-8.68h4.785l-6.273 8.556 6.606 8.804h-4.855l-6.486-8.68" fill="var(--icon-color-text, #000000)"/><path d="M12.506 9.497H30.63A16.045 16.045 0 0021.156.849l-8.65 8.648z" fill="var(--icon-color-logo, #FC4C02)"/><path d="M31.519 12.047H9.427a1.275 1.275 0 01-.901-2.175L18.243.158A16.006 16.006 0 00.558 11.809a15.994 15.994 0 00-.182 7.637h22.33a1.275 1.275 0 01.901 2.175L13.433 31.793a16.018 16.018 0 0014.375-4.99 16.009 16.009 0 003.71-14.756z" fill="var(--icon-color-logo, #FC4C02)"/><path d="M19.63 21.993H1.167a16.047 16.047 0 009.403 9.058l9.06-9.058z" fill="var(--icon-color-logo, #FC4C02)"/></svg><svg fill="none" viewBox="0 0 20 20" id="metro" xmlns="http://www.w3.org/2000/svg"><path fill-rule="evenodd" clip-rule="evenodd" d="M13.187 6.663c.809.748 1.308 1.79 1.308 2.929 0 1.904-1.391 3.516-3.282 4.005l.345.403H14.4c.993-.99 1.599-2.319 1.599-3.77 0-2.404-1.665-4.459-3.984-5.23L10 10.215 7.984 5C5.665 5.771 4 7.825 4 10.23c0 1.45.607 2.78 1.6 3.77h2.836l.35-.403H8.78c-1.89-.49-3.282-2.1-3.282-4.005 0-1.14.5-2.175 1.308-2.93.077-.085.232-.131.38-.108.15.029.292.126.363.339l2.224 5.853c.071.006.149.006.226.006.078 0 .149 0 .226-.006l2.224-5.86a.492.492 0 01.333-.327.48.48 0 01.405.104z" fill="var(--icon-color, #ffffff)"/></svg><svg fill="none" viewBox="0 0 21 20" id="ok" xmlns="http://www.w3.org/2000/svg"><path d="M18.951 2.697L9.877 12.873 7.05 9.768" stroke="var(--icon-color2, #202021)" stroke-width="var(--stroke-width2, 3)" stroke-linecap="round" stroke-linejoin="round"/><path d="M18.951 2.697L9.877 12.873 7.05 9.768" stroke="var(--icon-color, #ffffff)" stroke-width="var(--stroke-width, 1.5)" stroke-linecap="round" stroke-linejoin="round"/></svg><svg fill="none" viewBox="0 0 50 50" id="percent" xmlns="http://www.w3.org/2000/svg"><path d="M32.2 17.8L17.8 32.2" stroke="var(--icon-color, #ffffff)" stroke-width="1.5" stroke-linecap="round" stroke-linejoin="round"/><path d="M19.8 22.6a2.8 2.8 0 100-5.6 2.8 2.8 0 000 5.6zM30.2 33a2.8 2.8 0 100-5.6 2.8 2.8 0 000 5.6z" stroke="var(--icon-color, #ffffff)" stroke-width="1.5" stroke-miterlimit="10"/></svg><svg fill="none" viewBox="0 0 18 18" id="setting" xmlns="http://www.w3.org/2000/svg"><path d="M9 9h8M1 9h4M7 11a2 2 0 10.001-4 2 2 0 000 4zM1 4h12M15 6a2 2 0 10.001-4 2 2 0 000 4zM1 14h12M15 16a2 2 0 10.001-4 2 2 0 000 4z" stroke="#fff" stroke-width="1.5" stroke-miterlimit="10" stroke-linecap="round" stroke-linejoin="round"/></svg><svg fill="none" viewBox="0 0 84 450" id="slider-arrow" xmlns="http://www.w3.org/2000/svg"><path d="M4 0l80 225L4 450H1l80-225L1 0h3z" fill="var(--icon-color-main, #FC4C02)"/><path d="M1 0l80 225L1 450H0V0h1z" fill="var(--icon-color, #ffffff)"/></svg><svg fill="none" viewBox="0 0 18 18" id="Ñlock" xmlns="http://www.w3.org/2000/svg"><path d="M9 3.75V9l3 3" stroke="#fff" stroke-width="1.5"/><path d="M16.65 9a7.65 7.65 0 11-15.3 0 7.65 7.65 0 0115.3 0z" stroke="#fff" stroke-width="1.5"/></svg></svg>