<?xml version="1.0" encoding="utf-8"?><svg viewBox="0 0 84 450" xmlns="http://www.w3.org/2000/svg" xmlns:xlink="http://www.w3.org/1999/xlink"><style>:root>svg{display:none}:root>svg:target{display:block}</style><svg fill="none" viewBox="0 0 20 20" id="arrow" xmlns="http://www.w3.org/2000/svg"><path d="M8.882 13l3-3-3-3" stroke="var(--icon-color, #ffffff)" stroke-miterlimit="10" stroke-linecap="round" stroke-linejoin="round"/></svg><svg fill="none" viewBox="0 0 18 15" id="arrow-full" xmlns="http://www.w3.org/2000/svg"><path fill-rule="evenodd" clip-rule="evenodd" d="M10.47 1.588a.75.75 0 011.06 0l5 5a.75.75 0 010 1.06l-5 5a.75.75 0 11-1.06-1.06l4.47-4.47-4.47-4.47a.75.75 0 010-1.06z" fill="var(--icon-color, #ffffff)"/><path fill-rule="evenodd" clip-rule="evenodd" d="M1.25 7.118a.75.75 0 01.75-.75l14 .002a.75.75 0 110 1.5L2 7.868a.75.75 0 01-.75-.75z" fill="var(--icon-color, #ffffff)"/></svg><svg fill="none" viewBox="0 0 16 17" id="arrow-two" xmlns="http://www.w3.org/2000/svg"><path fill-rule="evenodd" clip-rule="evenodd" d="M9.25 2.118a.75.75 0 01.75-.75h4a.75.75 0 01.75.75v4a.75.75 0 01-1.5 0v-3.25H10a.75.75 0 01-.75-.75zM2 9.368a.75.75 0 01.75.75v3.25H6a.75.75 0 010 1.5H2a.75.75 0 01-.75-.75v-4a.75.75 0 01.75-.75z" fill="#fff"/><path fill-rule="evenodd" clip-rule="evenodd" d="M14.53 1.588a.75.75 0 010 1.06L9.864 7.316a.75.75 0 01-1.06-1.06l4.666-4.667a.75.75 0 011.06 0z" fill="#fff"/><path d="M2 14.118l4.666-4.666L2 14.118z" fill="#fff"/><path fill-rule="evenodd" clip-rule="evenodd" d="M7.197 8.922a.75.75 0 010 1.06L2.53 14.65a.75.75 0 11-1.06-1.061l4.666-4.666a.75.75 0 011.06 0z" fill="#fff"/></svg><svg fill="none" viewBox="0 0 20 20" id="cross" xmlns="http://www.w3.org/2000/svg"><path d="M10 10.057l-3 3.018m3-3.018L7 7.04m3 3.017l3-3.017m-3 3.017l3 3.018" stroke="#fff" stroke-width="1.5" stroke-miterlimit="10" stroke-linecap="round" stroke-linejoin="round"/></svg><svg fill="none" viewBox="0 0 12 52" id="dual-range" xmlns="http://www.w3.org/2000/svg"><path d="M1 1l10 25.743L1 51" stroke="var(--icon-color, #727272)"/></svg><svg fill="none" viewBox="0 0 20 20" id="geo-point" xmlns="http://www.w3.org/2000/svg"><path fill-rule="evenodd" clip-rule="evenodd" d="M10 15s4-2.572 4-5.714C14 6.919 12.21 5 10 5S6 6.919 6 9.286C6 12.143 10 15 10 15zm0-4a2 2 0 100-4 2 2 0 000 4z" fill="#fff"/></svg><svg fill="none" viewBox="0 0 10 5" id="icon-arrow" xmlns="http://www.w3.org/2000/svg"><path d="M1 1l4 3.158L9 1" stroke="var(--icon-color, #727272)" stroke-width="var(--icon-stroke, 1.5)" stroke-miterlimit="10" stroke-linecap="round" stroke-linejoin="round"/></svg><svg fill="none" viewBox="0 0 18 14" id="icon-arrow-full" xmlns="http://www.w3.org/2000/svg"><path d="M11 2l5 5-5 5M16 7.002L2 7" stroke="var(--icon-color, #727272)" stroke-width="var(--icon-stroke, 1.5)" stroke-miterlimit="10" stroke-linecap="round" stroke-linejoin="round"/></svg><svg fill="none" viewBox="0 0 50 50" id="lice" xmlns="http://www.w3.org/2000/svg"><path d="M15.707 22.26h4.956v10.739h-4.956a.826.826 0 01-.826-.826v-9.087a.826.826 0 01.826-.826v0zM20.664 22.26l4.13-8.26a3.305 3.305 0 013.304 3.304v2.479h6.39a1.652 1.652 0 011.64 1.857l-1.24 9.913A1.653 1.653 0 0133.248 33H20.665" stroke="var(--icon-color, #ffffff)" stroke-linecap="round" stroke-linejoin="round"/></svg><svg fill="none" viewBox="0 0 16 16" id="list" xmlns="http://www.w3.org/2000/svg"><path stroke="var(--icon-color, #E94200)" stroke-width="1.5" stroke-linecap="round" stroke-linejoin="round" d="M6 4h8M6 8h8m-8 4h8M2 4h1M2 8h1m-1 4h1"/></svg><svg fill="none" viewBox="0 0 15 15" id="little-man" xmlns="http://www.w3.org/2000/svg"><path d="M12.638 6.385a.53.53 0 00-.038-.01l-1.603-.402-2.027-1.52a.543.543 0 00-.326-.109H5.79a.543.543 0 00-.384.16L2.15 7.761a.543.543 0 000 .768l.358.358a.543.543 0 00.723.04L5.566 7.06v2.172l-.543 2.715-1.314 1.315a.543.543 0 00-.068.685l.51.766a.543.543 0 00.792.123l2.11-1.688a.543.543 0 00.187-.292l.499-1.995 1.086 1.63.869 2.167a.543.543 0 00.747.284l1.187-.593a.543.543 0 00.256-.7l-1.43-3.33-1.086-1.63-.087-1.63 1.173.544 1.683.42a.543.543 0 00.647-.355l.2-.597a.543.543 0 00-.346-.686z" fill="var(--icon-color, #ffffff)"/><path d="M7.195 4.345a2.172 2.172 0 100-4.345 2.172 2.172 0 000 4.345z" fill="var(--icon-color, #ffffff)"/></svg><svg fill="none" viewBox="0 0 50 50" id="mail" xmlns="http://www.w3.org/2000/svg"><path d="M15.668 18h18.667v13.222a.778.778 0 01-.778.778H16.446a.777.777 0 01-.778-.778V18z" stroke="var(--icon-color, #ffffff)" stroke-linecap="round" stroke-linejoin="round"/><path d="M34.335 18L25 26.556 15.668 18" stroke="var(--icon-color, #ffffff)" stroke-linecap="round" stroke-linejoin="round"/></svg><svg fill="none" viewBox="0 0 20 20" id="metro" xmlns="http://www.w3.org/2000/svg"><path fill-rule="evenodd" clip-rule="evenodd" d="M13.187 6.663c.809.748 1.308 1.79 1.308 2.929 0 1.904-1.391 3.516-3.282 4.005l.345.403H14.4c.993-.99 1.599-2.319 1.599-3.77 0-2.404-1.665-4.459-3.984-5.23L10 10.215 7.984 5C5.665 5.771 4 7.825 4 10.23c0 1.45.607 2.78 1.6 3.77h2.836l.35-.403H8.78c-1.89-.49-3.282-2.1-3.282-4.005 0-1.14.5-2.175 1.308-2.93.077-.085.232-.131.38-.108.15.029.292.126.363.339l2.224 5.853c.071.006.149.006.226.006.078 0 .149 0 .226-.006l2.224-5.86a.492.492 0 01.333-.327.48.48 0 01.405.104z" fill="var(--icon-color, #ffffff)"/></svg><svg fill="none" viewBox="0 0 21 20" id="ok" xmlns="http://www.w3.org/2000/svg"><path d="M18.951 2.697L9.877 12.873 7.05 9.768" stroke="#202021" stroke-width="3" stroke-linecap="round" stroke-linejoin="round"/><path d="M18.951 2.697L9.877 12.873 7.05 9.768" stroke="#fff" stroke-width="1.5" stroke-linecap="round" stroke-linejoin="round"/></svg><svg fill="none" viewBox="0 0 50 50" id="percent" xmlns="http://www.w3.org/2000/svg"><path d="M32.2 17.8L17.8 32.2" stroke="var(--icon-color, #ffffff)" stroke-width="1.5" stroke-linecap="round" stroke-linejoin="round"/><path d="M19.8 22.6a2.8 2.8 0 100-5.6 2.8 2.8 0 000 5.6zM30.2 33a2.8 2.8 0 100-5.6 2.8 2.8 0 000 5.6z" stroke="var(--icon-color, #ffffff)" stroke-width="1.5" stroke-miterlimit="10"/></svg><svg fill="none" viewBox="0 0 84 450" id="slider-arrow" xmlns="http://www.w3.org/2000/svg"><path d="M4 0l80 225L4 450H1l80-225L1 0h3z" fill="var(--icon-color-main, #FC4C02)"/><path d="M1 0l80 225L1 450H0V0h1z" fill="var(--icon-color, #ffffff)"/></svg></svg>