<?xml version="1.0" encoding="utf-8"?><svg viewBox="0 0 396 450" xmlns="http://www.w3.org/2000/svg" xmlns:xlink="http://www.w3.org/1999/xlink"><style>:root>svg{display:none}:root>svg:target{display:block}</style><svg fill="var(--icon-color, #BEBEBE)" viewBox="0 0 396 207" id="404" xmlns="http://www.w3.org/2000/svg"><path d="M84.456 2.24L0 105.119v1.656h84.663V143h2.07v-36.225h31.257v-2.07H86.733V2.24h-2.277zm.207 102.465H3.105l81.558-99.36v99.36zm53.56-32.085c0 42.435 19.665 72.45 60.03 72.45s60.03-30.015 60.03-72.45c0-42.642-19.665-72.45-60.03-72.45s-60.03 29.808-60.03 72.45zm117.99 0c0 41.4-18.837 70.38-57.96 70.38-39.123 0-57.96-28.98-57.96-70.38 0-41.4 18.837-70.38 57.96-70.38 39.123 0 57.96 28.98 57.96 70.38zM361.804 2.24l-84.456 102.879v1.656h84.663V143h2.07v-36.225h31.257v-2.07h-31.257V2.24h-2.277zm.207 102.465h-81.558l81.558-99.36v99.36zM14.376 204.64c-1.024 1.035-2.33 1.552-3.92 1.552-1.59 0-2.896-.517-3.92-1.552C5.512 203.595 5 202.272 5 200.672s.512-2.917 1.536-3.952c1.024-1.045 2.33-1.568 3.92-1.568 1.59 0 2.896.523 3.92 1.568 1.024 1.035 1.536 2.352 1.536 3.952s-.512 2.923-1.536 3.968zm-3.92-.112c1.056 0 1.91-.363 2.56-1.088.65-.736.976-1.659.976-2.768 0-1.12-.325-2.043-.976-2.768-.65-.725-1.504-1.088-2.56-1.088-1.067 0-1.925.363-2.576 1.088-.64.725-.96 1.648-.96 2.768 0 1.12.32 2.043.96 2.768.65.725 1.51 1.088 2.576 1.088zm80.762-9.2h1.872V206H80.114v-10.672h1.872v9.024h3.68v-9.024h1.872v9.024h3.68v-9.024zM159.572 206h-1.808v-10.672h1.872v7.408l5.456-7.408h1.92V206h-1.872v-7.616L159.572 206zm72.108-10.672h7.312v1.648h-5.44v2.336h2.816c1.077 0 1.925.325 2.544.976.629.64.944 1.429.944 2.368 0 .949-.315 1.744-.944 2.384-.619.64-1.467.96-2.544.96h-4.688v-10.672zm4.432 5.632h-2.56v3.392h2.56c.533 0 .971-.155 1.312-.464.341-.309.512-.72.512-1.232s-.171-.923-.512-1.232c-.341-.309-.779-.464-1.312-.464zm76.39 5.04h-2.304l-3.584-4.496-.928 1.088V206h-1.872v-10.672h1.872v5.088l4.176-5.088h2.32l-4.336 5.04 4.656 5.632zm73.25 0h-2.128l-.784-2.048h-4.896L377.16 206h-2.128l4.192-10.672h2.336L385.752 206zm-3.44-3.696l-1.92-5.088-1.92 5.088h3.84z"/></svg><svg fill="none" viewBox="0 0 20 20" id="arrow" xmlns="http://www.w3.org/2000/svg"><path d="M8.882 13l3-3-3-3" stroke="var(--icon-color, #ffffff)" stroke-miterlimit="10" stroke-linecap="round" stroke-linejoin="round"/></svg><svg fill="none" viewBox="0 0 20 20" id="cross" xmlns="http://www.w3.org/2000/svg"><path d="M10 10.057l-3 3.018m3-3.018L7 7.04m3 3.017l3-3.017m-3 3.017l3 3.018" stroke="#fff" stroke-width="1.5" stroke-miterlimit="10" stroke-linecap="round" stroke-linejoin="round"/></svg><svg fill="none" viewBox="0 0 12 52" id="dual-range" xmlns="http://www.w3.org/2000/svg"><path d="M1 1l10 25.743L1 51" stroke="var(--icon-color, #727272)"/></svg><svg fill="none" viewBox="0 0 55 55" id="ft-01" xmlns="http://www.w3.org/2000/svg"><path d="M8.631 26.649l15.607-9.569M46.127 26.65l-14.542-9.57" stroke="#fff" stroke-width="1.5" stroke-miterlimit="10" stroke-linecap="round" stroke-linejoin="round"/><path d="M6 51.236h44V26.648H6v24.588z" stroke="#E94200" stroke-width="1.5" stroke-miterlimit="10" stroke-linecap="round" stroke-linejoin="round"/><path d="M15.058 33.117v11.647" stroke="#fff" stroke-width="1.5" stroke-miterlimit="10" stroke-linecap="round" stroke-linejoin="round"/><path d="M21.53 35.705v6.472" stroke="#E94200" stroke-width="1.5" stroke-miterlimit="10" stroke-linecap="round" stroke-linejoin="round"/><path d="M27.999 33.117v11.647" stroke="#fff" stroke-width="1.5" stroke-miterlimit="10" stroke-linecap="round" stroke-linejoin="round"/><path d="M34.472 35.705v6.472" stroke="#E94200" stroke-width="1.5" stroke-miterlimit="10" stroke-linecap="round" stroke-linejoin="round"/><path d="M42.233 33.117v11.647" stroke="#fff" stroke-width="1.5" stroke-miterlimit="10" stroke-linecap="round" stroke-linejoin="round"/><path d="M24.115 14.924a3.993 3.993 0 004.026 3.958 3.993 3.993 0 004.025-3.958 3.995 3.995 0 00-4.168-3.806V4" stroke="#E94200" stroke-width="1.5" stroke-miterlimit="10" stroke-linecap="round" stroke-linejoin="round"/></svg><svg fill="none" viewBox="0 0 55 55" id="ft-02" xmlns="http://www.w3.org/2000/svg"><path d="M48.58 9h-7.977M52 13.559H32.628" stroke="#fff" stroke-width="1.5" stroke-miterlimit="10" stroke-linecap="round" stroke-linejoin="round"/><path d="M3 18.116l12.534-6.838M29.21 24.951l6.838-3.418M42.884 29.511l4.557-2.279M29.21 18.116l-13.676-6.838v36.464M41.745 24.951l-5.698-3.418M51.997 29.511l-4.557-2.279M29.21 18.114v29.628M36.047 21.533v26.209M41.743 24.951v22.79M47.44 28.37V47.74M52 29.51v18.232M3 18.115v29.627" stroke="#E94200" stroke-width="1.5" stroke-miterlimit="10" stroke-linecap="round" stroke-linejoin="round"/></svg><svg fill="none" viewBox="0 0 55 55" id="ft-03" xmlns="http://www.w3.org/2000/svg"><path d="M44.349 9.343h-2.415a.53.53 0 00-.588.484v7.808c0 .323.384.493.78.493.397 0 .781-.168.781-.493v-2.79h1.346c1.586 0 2.826-.757 2.826-2.728v-.072c-.003-1.97-1.205-2.702-2.73-2.702zm1.165 2.895c0 .936-.48 1.381-1.261 1.381h-1.346v-2.907h1.346c.78 0 1.261.444 1.261 1.382v.144z" fill="#fff"/><path d="M37.676 36.59a11.375 11.375 0 01-.894-.548l-4.661-3.149a8.493 8.493 0 00-4.772-1.46h-8.555a8.47 8.47 0 00-6.017 2.485 11.422 11.422 0 01-2.8 2.049 1.833 1.833 0 00.844 3.46h2.918a.705.705 0 000-1.41h-2.917a.424.424 0 01-.195-.8 12.83 12.83 0 003.15-2.301 7.07 7.07 0 015.021-2.075h1.91v5.176h-2.342a.705.705 0 000 1.409h19.325a1.05 1.05 0 001.05-1.05 2.043 2.043 0 00-1.065-1.787zm-15.557 1.428v-5.174h5.23a7.09 7.09 0 013.983 1.22l4.661 3.15c.323.218.661.424 1.004.613a.655.655 0 01.219.195l-15.097-.004z" fill="#E94200"/><path d="M51.856 39.1l-.223-.368a5.802 5.802 0 00-3.828-2.69l-1.82-.361V22.24h4.708a1.76 1.76 0 001.758-1.759V6.758A1.76 1.76 0 0050.693 5h-13.72a1.76 1.76 0 00-1.759 1.758v5.206a.705.705 0 001.41 0V6.758a.349.349 0 01.348-.349H50.7a.349.349 0 01.35.349v13.728a.349.349 0 01-.35.349H36.972a.348.348 0 01-.349-.349v-3.94a.705.705 0 00-1.409 0v3.936a1.76 1.76 0 001.758 1.758h5.339v12.71l-.935-.187a9.933 9.933 0 01-3.384-1.6l-4.66-3.149a10.648 10.648 0 00-5.982-1.831h-8.555a10.618 10.618 0 00-7.542 3.115 9.254 9.254 0 01-4.645 2.508l-1.012.211A3.28 3.28 0 003 37.214v6.826a2.064 2.064 0 001.225 1.884l2.807 1.248a4.672 4.672 0 009.087.384H39.52a4.672 4.672 0 008.995 0h1.337a2.616 2.616 0 002.614-2.613v-3.656a4.24 4.24 0 00-.61-2.186zM43.72 22.24h.859V35.4l-.859-.17V22.24zM13.93 48.596a3.266 3.266 0 01-5.277-3.666l.013-.029.052-.106.026-.05.05-.09.037-.063.05-.08.047-.071.048-.069c.016-.022.039-.051.058-.08.02-.03.03-.04.046-.06.015-.02.048-.057.072-.08l.041-.049c.036-.04.073-.078.11-.117l.01-.01.023-.02c.032-.032.065-.063.098-.093l.026-.023.1-.086.01-.008a3.271 3.271 0 014.11 0h.005l.107.093.02.017.12.114c.043.043.08.087.123.131l.051.059.062.073c.02.024.043.055.065.08l.035.048.075.108.013.019a3.27 3.27 0 01-.427 4.108zm32.398 0a3.266 3.266 0 01-5.042-4.098l.012-.017a3.11 3.11 0 01.075-.109l.036-.047a.957.957 0 01.065-.08c.023-.024.04-.049.06-.073l.053-.06c.04-.044.08-.088.123-.13a3.266 3.266 0 014.618 0c.043.042.081.086.124.13.018.02.034.04.05.06l.062.073c.02.024.044.056.066.08l.035.048.075.108.012.019a3.271 3.271 0 01-.424 4.096zm4.729-3.654a1.205 1.205 0 01-1.204 1.205h-1.16a4.616 4.616 0 00-1.036-2.798l-.013-.016a3.56 3.56 0 00-.124-.145l-.033-.037a5.578 5.578 0 00-.138-.145l-.023-.025a4.646 4.646 0 00-2.164-1.23 4.746 4.746 0 00-2.061-.05 4.642 4.642 0 00-2.389 1.28l-.023.024a4.654 4.654 0 00-.138.146l-.031.036a5.267 5.267 0 00-.125.146l-.012.015a4.617 4.617 0 00-1.039 2.8h-23.05a4.617 4.617 0 00-1.04-2.801l-.01-.011a5.817 5.817 0 00-.13-.154l-.025-.028a4.683 4.683 0 00-6.925-.01l-.043.049c-.035.039-.069.079-.102.12l-.045.053a4.515 4.515 0 00-.1.131l-.029.036c-.088.12-.169.245-.242.373l-.006.01a4.433 4.433 0 00-.107.192v.006c-.246.468-.41.975-.485 1.498l-2.196-.976a.653.653 0 01-.388-.597v-6.825a1.864 1.864 0 011.476-1.816l1.011-.211a10.659 10.659 0 005.351-2.889 9.218 9.218 0 016.536-2.705h8.555a9.244 9.244 0 015.192 1.589l4.661 3.15c1.17.85 2.494 1.465 3.897 1.813l6.432 1.28a4.39 4.39 0 012.896 2.035l.223.37c.265.44.405.945.404 1.46l.002 3.652z" fill="#E94200"/><path d="M12.83 45.075a1.713 1.713 0 100 2.423 1.701 1.701 0 000-2.422zm-.798 1.625a.581.581 0 11.002 0h-.002zM45.312 44.993a1.83 1.83 0 10-2.588 2.588 1.83 1.83 0 002.588-2.588zm-.853 1.735a.621.621 0 11-.876-.88.621.621 0 01.876.88z" fill="#fff"/></svg><svg fill="none" viewBox="0 0 55 55" id="ft-04" xmlns="http://www.w3.org/2000/svg"><path d="M53.413 17.243H34.368v34.008h19.045V17.243zM34.366 5H7.16v46.251h27.206V5z" stroke="#E94200" stroke-width="2" stroke-miterlimit="10" stroke-linecap="round" stroke-linejoin="round"/><path d="M26 12H1M20 18H4M43.797 48.867V19.629M40.004 25.123l3.794-5.514M47.88 25.123l-3.794-5.514M47.879 44.096l-3.794 5.51M40.003 44.096l3.794 5.51" stroke="#fff" stroke-width="2" stroke-miterlimit="10" stroke-linecap="round" stroke-linejoin="round"/></svg><svg fill="none" viewBox="0 0 20 20" id="geo-point" xmlns="http://www.w3.org/2000/svg"><path fill-rule="evenodd" clip-rule="evenodd" d="M10 15s4-2.572 4-5.714C14 6.919 12.21 5 10 5S6 6.919 6 9.286C6 12.143 10 15 10 15zm0-4a2 2 0 100-4 2 2 0 000 4z" fill="var(--icon-color, #ffffff)"/></svg><svg fill="none" viewBox="0 0 45 45" id="hd-calendar" xmlns="http://www.w3.org/2000/svg"><path clip-rule="evenodd" d="M10.568 9.11h24.294c.416 0 .814.164 1.108.455.294.292.46.687.46 1.1v27.209c0 .412-.166.808-.46 1.1a1.574 1.574 0 01-1.108.455H10.568c-.415 0-.814-.164-1.108-.456A1.549 1.549 0 019 37.874v-27.21c0-.412.166-.807.46-1.099a1.574 1.574 0 011.108-.455v0z" stroke="#E84E0E" stroke-linecap="round" stroke-linejoin="round"/><path d="M29.374 6v6.22M16.052 6v6.22V6zm0 18.658v7.774-7.774zm3.134 3.887h2.351-2.35z" stroke="var(--icon-color, #ffffff)" stroke-linecap="round" stroke-linejoin="round"/><path d="M9 17.661h27.43" stroke="#E84E0E" stroke-linecap="round" stroke-linejoin="round"/><path d="M29.379 32.432h-4.702c2.35-2.326 4.702-4.154 4.702-5.442 0-.618-.248-1.212-.689-1.65a2.36 2.36 0 00-3.325 0 2.323 2.323 0 00-.688 1.65" stroke="var(--icon-color, #ffffff)" stroke-linecap="round" stroke-linejoin="round"/></svg><svg fill="none" viewBox="0 0 45 45" id="hd-doc" xmlns="http://www.w3.org/2000/svg"><path clip-rule="evenodd" d="M26.607 6H13.321C11.487 6 10 7.497 10 9.343v26.743c0 1.846 1.487 3.343 3.321 3.343H33.25c1.834 0 3.321-1.497 3.321-3.343V16.029L26.607 6z" stroke="#E84E0E" stroke-linecap="round" stroke-linejoin="round"/><path d="M26.703 6v9.877h9.87" stroke="#E84E0E" stroke-linecap="round" stroke-linejoin="round"/><path clip-rule="evenodd" d="M17.592 22.714h-.76.76zm0 6.838h-.76.76zm0-13.675h-.76.76zm12.906 6.837h-9.87 9.87zm0 6.838h-9.87 9.87zm-9.87-13.675h2.278-2.277z" stroke="var(--icon-color, #ffffff)" stroke-linecap="round" stroke-linejoin="round"/></svg><svg fill="none" viewBox="0 0 45 45" id="hd-percent" xmlns="http://www.w3.org/2000/svg"><path d="M28.287 17.143L17.145 28.285M18.337 20.326a1.99 1.99 0 100-3.98 1.99 1.99 0 000 3.98zM27.091 29.081a1.99 1.99 0 100-3.98 1.99 1.99 0 000 3.98z" stroke="var(--icon-color, #ffffff)" stroke-linecap="round" stroke-linejoin="round"/><path d="M22.714 39.429c9.231 0 16.715-7.484 16.715-16.715C39.429 13.484 31.945 6 22.714 6 13.484 6 6 13.483 6 22.714c0 9.231 7.483 16.715 16.714 16.715z" stroke="#E84E0E" stroke-linecap="round" stroke-linejoin="round"/></svg><svg fill="none" viewBox="0 0 45 45" id="hd-signature" xmlns="http://www.w3.org/2000/svg"><path d="M7 29.708h27.772M17.415 40h6.942v-5.881h-6.942v5.88zm-2.083 0H26.44 15.332zM34.772 22.969v9.426c0 .885-.691 1.6-1.543 1.6H8.543c-.852 0-1.543-.715-1.543-1.6V15.013c0-.885.69-1.6 1.543-1.6H28.33" stroke="#E84E0E" stroke-linecap="round" stroke-linejoin="round"/><path d="M25.949 22.181H16.12m26.141-7.405c.79-.854 1.235-2.013 1.235-3.221 0-1.208-.444-2.367-1.235-3.22C41.472 7.48 40.4 7 39.282 7c-1.117 0-2.189.48-2.98 1.334l-4.738 5.122v6.449h5.967l4.731-5.13zm-2.976-3.217L29.458 22.18l9.828-10.622zm.702 5.31h-5.616 5.616z" stroke="var(--icon-color, #ffffff)" stroke-linecap="round" stroke-linejoin="round"/></svg><svg fill="none" viewBox="0 0 10 5" id="icon-arrow" xmlns="http://www.w3.org/2000/svg"><path d="M1 1l4 3.158L9 1" stroke="var(--icon-color, #727272)" stroke-width="var(--icon-stroke, 1.5)" stroke-miterlimit="10" stroke-linecap="round" stroke-linejoin="round"/></svg><svg fill="none" viewBox="0 0 18 14" id="icon-arrow-full" xmlns="http://www.w3.org/2000/svg"><path d="M11 2l5 5-5 5M16 7.002L2 7" stroke="var(--icon-color, #727272)" stroke-width="var(--icon-stroke, 1.5)" stroke-miterlimit="10" stroke-linecap="round" stroke-linejoin="round"/></svg><svg fill="none" viewBox="0 0 16 16" id="icon-arrow-two" xmlns="http://www.w3.org/2000/svg"><path d="M10 2h4v4M6 14H2v-4M14 2L9.334 6.666M2 14l4.666-4.666" stroke="var(--icon-color, #727272)" stroke-width="1.5" stroke-miterlimit="10" stroke-linecap="round" stroke-linejoin="round"/></svg><svg fill="none" viewBox="0 0 50 50" id="lice" xmlns="http://www.w3.org/2000/svg"><path d="M15.707 22.26h4.956v10.739h-4.956a.826.826 0 01-.826-.826v-9.087a.826.826 0 01.826-.826v0zM20.664 22.26l4.13-8.26a3.305 3.305 0 013.304 3.304v2.479h6.39a1.652 1.652 0 011.64 1.857l-1.24 9.913A1.653 1.653 0 0133.248 33H20.665" stroke="var(--icon-color, #ffffff)" stroke-linecap="round" stroke-linejoin="round"/></svg><svg fill="none" viewBox="0 0 16 16" id="list" xmlns="http://www.w3.org/2000/svg"><path stroke="var(--icon-color, #E94200)" stroke-width="1.5" stroke-linecap="round" stroke-linejoin="round" d="M6 4h8M6 8h8m-8 4h8M2 4h1M2 8h1m-1 4h1"/></svg><svg fill="none" viewBox="0 0 15 15" id="little-bus" xmlns="http://www.w3.org/2000/svg"><path d="M14.244 2.911c-.012-.927-.685-1.662-.685-1.662C12.167-.357 2.425-.474 1.32 1.25c0 0-.557.749-.588 1.664a.832.832 0 00-.522.264.794.794 0 00-.209.536v1.561a.79.79 0 00.149.461.824.824 0 00.392.295c-.075 2.463-.014 5.033.102 6.312 0 .987.68.823.68.823h.637v1.065a.882.882 0 00.338.578c.185.142.42.21.654.186a.926.926 0 00.657-.185.883.883 0 00.34-.579v-1.065h7.408v1.065a.882.882 0 00.34.58.925.925 0 00.657.184.925.925 0 00.657-.185.882.882 0 00.34-.579v-1.065h.204s.8.107.85-.358c0-1.275.083-4.099.015-6.766a.82.82 0 00.42-.29.787.787 0 00.16-.477V3.711a.79.79 0 00-.217-.545.828.828 0 00-.54-.255zM3.8 11.908c-.21 0-.416-.06-.59-.175a1.044 1.044 0 01-.392-.466 1.014 1.014 0 01.23-1.13 1.088 1.088 0 011.16-.225c.194.078.36.211.477.382a1.02 1.02 0 01-.13 1.308 1.078 1.078 0 01-.75.306H3.8zm7.335 0c-.21 0-.416-.06-.59-.175a1.044 1.044 0 01-.393-.466 1.014 1.014 0 01.23-1.13 1.088 1.088 0 011.16-.225c.194.078.36.211.477.382a1.02 1.02 0 01-.13 1.307 1.079 1.079 0 01-.747.307h-.007zm1.351-4.541h-10.1V3.199h10.106l-.006 4.168z" fill="var(--icon-color, #ffffff)"/></svg><svg fill="none" viewBox="0 0 15 15" id="little-man" xmlns="http://www.w3.org/2000/svg"><path d="M12.638 6.385a.53.53 0 00-.038-.01l-1.603-.402-2.027-1.52a.543.543 0 00-.326-.109H5.79a.543.543 0 00-.384.16L2.15 7.761a.543.543 0 000 .768l.358.358a.543.543 0 00.723.04L5.566 7.06v2.172l-.543 2.715-1.314 1.315a.543.543 0 00-.068.685l.51.766a.543.543 0 00.792.123l2.11-1.688a.543.543 0 00.187-.292l.499-1.995 1.086 1.63.869 2.167a.543.543 0 00.747.284l1.187-.593a.543.543 0 00.256-.7l-1.43-3.33-1.086-1.63-.087-1.63 1.173.544 1.683.42a.543.543 0 00.647-.355l.2-.597a.543.543 0 00-.346-.686z" fill="var(--icon-color, #ffffff)"/><path d="M7.195 4.345a2.172 2.172 0 100-4.345 2.172 2.172 0 000 4.345z" fill="var(--icon-color, #ffffff)"/></svg><svg fill="none" viewBox="0 0 50 50" id="mail" xmlns="http://www.w3.org/2000/svg"><path d="M15.668 18h18.667v13.222a.778.778 0 01-.778.778H16.446a.777.777 0 01-.778-.778V18z" stroke="var(--icon-color, #ffffff)" stroke-linecap="round" stroke-linejoin="round"/><path d="M34.335 18L25 26.556 15.668 18" stroke="var(--icon-color, #ffffff)" stroke-linecap="round" stroke-linejoin="round"/></svg><svg fill="none" viewBox="0 0 96 32" id="main-logo" xmlns="http://www.w3.org/2000/svg"><path d="M73.86 19.128a4.658 4.658 0 01-7.607-5.225 4.657 4.657 0 016.86-1.698l2.539-3.57a9.045 9.045 0 00-14.279 7.859 9.04 9.04 0 005.563 7.854 9.047 9.047 0 009.492-1.607l-2.569-3.613zM53.292 7.491l-2.53 3.56a4.972 4.972 0 012.916 8.55 4.973 4.973 0 01-3.424 1.367V3.03H46.04v3.927a9.044 9.044 0 00-9.043 9.04 9.04 9.04 0 009.043 9.041v4.071h4.21v-4.07a9.038 9.038 0 008.913-7.494A9.032 9.032 0 0053.29 7.493l.003-.002zM41.066 16a4.971 4.971 0 014.972-4.972v9.942A4.973 4.973 0 0141.066 16M83.619 24.676h-4.601V7.315h4.6v17.361zm.585-8.679l6.225-8.68h4.785l-6.273 8.556 6.606 8.804h-4.855l-6.486-8.68" fill="var(--icon-color-text, #000000)"/><path d="M12.506 9.497H30.63A16.045 16.045 0 0021.156.849l-8.65 8.648z" fill="var(--icon-color-logo, #FC4C02)"/><path d="M31.519 12.047H9.427a1.275 1.275 0 01-.901-2.175L18.243.158A16.006 16.006 0 00.558 11.809a15.994 15.994 0 00-.182 7.637h22.33a1.275 1.275 0 01.901 2.175L13.433 31.793a16.018 16.018 0 0014.375-4.99 16.009 16.009 0 003.71-14.756z" fill="var(--icon-color-logo, #FC4C02)"/><path d="M19.63 21.993H1.167a16.047 16.047 0 009.403 9.058l9.06-9.058z" fill="var(--icon-color-logo, #FC4C02)"/></svg><svg fill="none" viewBox="0 0 20 20" id="metro" xmlns="http://www.w3.org/2000/svg"><path fill-rule="evenodd" clip-rule="evenodd" d="M13.187 6.663c.809.748 1.308 1.79 1.308 2.929 0 1.904-1.391 3.516-3.282 4.005l.345.403H14.4c.993-.99 1.599-2.319 1.599-3.77 0-2.404-1.665-4.459-3.984-5.23L10 10.215 7.984 5C5.665 5.771 4 7.825 4 10.23c0 1.45.607 2.78 1.6 3.77h2.836l.35-.403H8.78c-1.89-.49-3.282-2.1-3.282-4.005 0-1.14.5-2.175 1.308-2.93.077-.085.232-.131.38-.108.15.029.292.126.363.339l2.224 5.853c.071.006.149.006.226.006.078 0 .149 0 .226-.006l2.224-5.86a.492.492 0 01.333-.327.48.48 0 01.405.104z" fill="var(--icon-color, #ffffff)"/></svg><svg fill="none" viewBox="0 0 21 20" id="ok" xmlns="http://www.w3.org/2000/svg"><path d="M18.951 2.697L9.877 12.873 7.05 9.768" stroke="var(--icon-color2, #202021)" stroke-width="var(--stroke-width2, 3)" stroke-linecap="round" stroke-linejoin="round"/><path d="M18.951 2.697L9.877 12.873 7.05 9.768" stroke="var(--icon-color, #ffffff)" stroke-width="var(--stroke-width, 1.5)" stroke-linecap="round" stroke-linejoin="round"/></svg><svg fill="none" viewBox="0 0 50 50" id="percent" xmlns="http://www.w3.org/2000/svg"><path d="M32.2 17.8L17.8 32.2" stroke="var(--icon-color, #ffffff)" stroke-width="1.5" stroke-linecap="round" stroke-linejoin="round"/><path d="M19.8 22.6a2.8 2.8 0 100-5.6 2.8 2.8 0 000 5.6zM30.2 33a2.8 2.8 0 100-5.6 2.8 2.8 0 000 5.6z" stroke="var(--icon-color, #ffffff)" stroke-width="1.5" stroke-miterlimit="10"/></svg><svg fill="none" viewBox="0 0 40 40" id="play" xmlns="http://www.w3.org/2000/svg"><path d="M28.125 20.216l-12 6.929a.25.25 0 01-.375-.217V13.072a.25.25 0 01.375-.217l12 6.928a.25.25 0 010 .433z" stroke="#fff" stroke-width="1.5"/></svg><svg fill="none" viewBox="0 0 18 18" id="setting" xmlns="http://www.w3.org/2000/svg"><path d="M9 9h8M1 9h4M7 11a2 2 0 10.001-4 2 2 0 000 4zM1 4h12M15 6a2 2 0 10.001-4 2 2 0 000 4zM1 14h12M15 16a2 2 0 10.001-4 2 2 0 000 4z" stroke="#fff" stroke-width="1.5" stroke-miterlimit="10" stroke-linecap="round" stroke-linejoin="round"/></svg><svg fill="none" viewBox="0 0 84 450" id="slider-arrow" xmlns="http://www.w3.org/2000/svg"><path d="M4 0l80 225L4 450H1l80-225L1 0h3z" fill="var(--icon-color-main, #FC4C02)"/><path d="M1 0l80 225L1 450H0V0h1z" fill="var(--icon-color, #ffffff)"/></svg><svg fill="none" viewBox="0 0 18 18" id="Ñlock" xmlns="http://www.w3.org/2000/svg"><path d="M9 3.75V9l3 3" stroke="#fff" stroke-width="1.5"/><path d="M16.65 9a7.65 7.65 0 11-15.3 0 7.65 7.65 0 0115.3 0z" stroke="#fff" stroke-width="1.5"/></svg></svg>