<svg width="18" height="15" viewBox="0 0 18 15" fill="none" xmlns="http://www.w3.org/2000/svg">
    <path fill-rule="evenodd" clip-rule="evenodd"
        d="M10.4697 1.58802C10.7626 1.29512 11.2374 1.29512 11.5303 1.58802L16.5303 6.58802C16.8232 6.88091 16.8232 7.35578 16.5303 7.64868L11.5303 12.6487C11.2374 12.9416 10.7626 12.9416 10.4697 12.6487C10.1768 12.3558 10.1768 11.8809 10.4697 11.588L14.9393 7.11835L10.4697 2.64868C10.1768 2.35578 10.1768 1.88091 10.4697 1.58802Z"
        fill="var(--icon-color, #ffffff)" />
    <path fill-rule="evenodd" clip-rule="evenodd"
        d="M1.25 7.11825C1.25005 6.70404 1.58588 6.36829 2.0001 6.36835L16.0001 6.37013C16.4143 6.37019 16.7501 6.70602 16.75 7.12023C16.7499 7.53444 16.4141 7.87019 15.9999 7.87013L1.9999 7.86835C1.58569 7.86829 1.24995 7.53247 1.25 7.11825Z"
        fill="var(--icon-color, #ffffff)" />
</svg>