<svg width="31" height="37" viewBox="0 0 31 37" fill="none" xmlns="http://www.w3.org/2000/svg">
<path fill-rule="evenodd" clip-rule="evenodd" d="M25.3855 5.61827C25.3855 5.24296 25.6897 4.93872 26.065 4.93872C27.1332 4.93872 28.3258 4.97622 29.246 5.4737C29.7312 5.73606 30.1394 6.12332 30.4183 6.67237C30.6919 7.21123 30.8218 7.86778 30.8218 8.64743C30.8218 12.4925 30.8097 18.551 30.7976 23.6475C30.7915 26.1959 30.7854 28.504 30.7809 30.1751L30.7733 32.877L30.7733 32.8781V32.8793C30.7723 34.9224 29.125 36.5865 27.0843 36.5865H9.02784C8.16789 36.5865 7.46329 36.3856 6.90571 36.0061C6.34902 35.6273 5.99321 35.1075 5.76687 34.5615C5.33841 33.528 5.33869 32.2985 5.33887 31.49L5.33888 31.441C5.33888 31.0657 5.64313 30.7614 6.01843 30.7614C6.39373 30.7614 6.69797 31.0657 6.69797 31.441C6.69797 32.3065 6.70719 33.2808 7.02234 34.041C7.17217 34.4024 7.38063 34.6854 7.67034 34.8825C7.95916 35.0791 8.38309 35.2274 9.02784 35.2274H27.0843C28.3668 35.2274 29.4142 34.1796 29.4142 32.8781V32.8761L30.0937 32.8781C29.4142 32.8761 29.4142 32.8762 29.4142 32.8761L29.4142 32.8753L29.4218 30.1714C29.4263 28.5005 29.4324 26.1925 29.4385 23.6443C29.4506 18.5476 29.4627 12.4907 29.4627 8.64743C29.4627 8.0119 29.356 7.58221 29.2065 7.28777C29.0621 7.0035 28.8606 6.81037 28.5996 6.66923C28.0271 6.35972 27.1812 6.29781 26.065 6.29781C25.6897 6.29781 25.3855 5.99357 25.3855 5.61827Z" fill="#FC4C02"/>
<path fill-rule="evenodd" clip-rule="evenodd" d="M21.9877 0.181885C23.2013 0.181885 24.2316 0.517482 24.9652 1.19088C25.7052 1.8702 26.065 2.82189 26.065 3.89059C26.065 7.73571 26.0528 13.7941 26.0407 18.8907C26.0346 21.4391 26.0286 23.7472 26.024 25.4182L26.0164 28.1202L26.0164 28.1212V28.1225C26.0155 30.1656 24.3681 31.8296 22.3275 31.8296H4.27099C2.22971 31.8296 0.582031 30.1652 0.582031 28.1212V3.89059C0.582031 1.84666 2.22971 0.182217 4.27099 0.182217V0.417953C4.271 0.182217 4.27093 0.182217 4.27099 0.182217L21.9877 0.181885ZM4.27099 0.861762L4.27101 1.54131C2.98852 1.54131 1.94112 2.58905 1.94112 3.89059V28.1212C1.94112 29.4228 2.9885 30.4705 4.27099 30.4705H22.3275C23.61 30.4705 24.6573 29.4228 24.6573 28.1212V28.1193L25.3369 28.1212C24.6573 28.1193 24.6573 28.1194 24.6573 28.1193L24.6573 28.1185L24.6649 25.4145C24.6695 23.7436 24.6755 21.4357 24.6816 18.8874C24.6938 13.7908 24.7059 7.73387 24.7059 3.89059C24.7059 3.1339 24.4589 2.57101 24.0461 2.19209C23.6269 1.80726 22.9584 1.54098 21.9877 1.54098L4.27101 1.54131C4.27092 1.54131 4.27101 1.54131 4.27099 0.861762Z" fill="#FC4C02"/>
<path fill-rule="evenodd" clip-rule="evenodd" d="M10.817 6.29771C10.817 5.92241 11.1212 5.61816 11.4965 5.61816H20.4388C20.8141 5.61816 21.1183 5.92241 21.1183 6.29771C21.1183 6.67301 20.8141 6.97725 20.4388 6.97725H11.4965C11.1212 6.97725 10.817 6.67301 10.817 6.29771ZM10.7754 9.69544C10.7754 9.32013 11.0796 9.01589 11.4549 9.01589H14.8527C15.228 9.01589 15.5322 9.32013 15.5322 9.69544C15.5322 10.0707 15.228 10.375 14.8527 10.375H11.4549C11.0796 10.375 10.7754 10.0707 10.7754 9.69544Z" fill="#FC4C02"/>
<path fill-rule="evenodd" clip-rule="evenodd" d="M7.5764 7.17633C7.84177 6.91095 8.27204 6.91095 8.53742 7.17633C8.8028 7.44171 8.8028 7.87197 8.53742 8.13735L6.83855 9.83621C6.57318 10.1016 6.14291 10.1016 5.87753 9.83621L4.85821 8.8169C4.59283 8.55152 4.59283 8.12125 4.85821 7.85587C5.12359 7.5905 5.55386 7.5905 5.81924 7.85587L6.35804 8.39468L7.5764 7.17633Z" fill="#FC4C02"/>
<path fill-rule="evenodd" clip-rule="evenodd" d="M7.5764 14.6514C7.84177 14.386 8.27204 14.386 8.53742 14.6514C8.8028 14.9168 8.8028 15.3471 8.53742 15.6124L6.83855 17.3113C6.57318 17.5767 6.14291 17.5767 5.87753 17.3113L4.85821 16.292C4.59283 16.0266 4.59283 15.5964 4.85821 15.331C5.12359 15.0656 5.55386 15.0656 5.81924 15.331L6.35804 15.8698L7.5764 14.6514Z" fill="#FC4C02"/>
<path fill-rule="evenodd" clip-rule="evenodd" d="M4.8291 21.9274C4.8291 21.6459 5.05728 21.4177 5.33876 21.4177H8.05694C8.33842 21.4177 8.5666 21.6459 8.5666 21.9274V24.6456C8.5666 24.927 8.33842 25.1552 8.05694 25.1552H5.33876C5.05728 25.1552 4.8291 24.927 4.8291 24.6456V21.9274ZM5.84842 22.437V24.1359H7.54728V22.437H5.84842Z" fill="#FC4C02"/>
<path fill-rule="evenodd" clip-rule="evenodd" d="M10.817 13.7728C10.817 13.3975 11.1212 13.0933 11.4965 13.0933H20.4388C20.8141 13.0933 21.1183 13.3975 21.1183 13.7728C21.1183 14.1481 20.8141 14.4524 20.4388 14.4524H11.4965C11.1212 14.4524 10.817 14.1481 10.817 13.7728ZM10.7754 17.1705C10.7754 16.7952 11.0796 16.491 11.4549 16.491H14.8527C15.228 16.491 15.5322 16.7952 15.5322 17.1705C15.5322 17.5458 15.228 17.8501 14.8527 17.8501H11.4549C11.0796 17.8501 10.7754 17.5458 10.7754 17.1705Z" fill="#FC4C02"/>
<path fill-rule="evenodd" clip-rule="evenodd" d="M10.817 21.2479C10.817 20.8726 11.1212 20.5684 11.4965 20.5684H20.4388C20.8141 20.5684 21.1183 20.8726 21.1183 21.2479C21.1183 21.6232 20.8141 21.9275 20.4388 21.9275H11.4965C11.1212 21.9275 10.817 21.6232 10.817 21.2479ZM10.7754 24.6456C10.7754 24.2703 11.0796 23.9661 11.4549 23.9661H14.8527C15.228 23.9661 15.5322 24.2703 15.5322 24.6456C15.5322 25.0209 15.228 25.3252 14.8527 25.3252H11.4549C11.0796 25.3252 10.7754 25.0209 10.7754 24.6456Z" fill="#FC4C02"/>
</svg>
