<svg width="39" height="32" viewBox="0 0 39 32" fill="none" xmlns="http://www.w3.org/2000/svg">
<g clip-path="url(#clip0)">
<path fill-rule="evenodd" clip-rule="evenodd" d="M6.18164 1.06278C6.18164 0.576274 6.57764 0.181885 7.06613 0.181885H24.7559C25.2444 0.181885 25.6404 0.576274 25.6404 1.06278V8.10992H37.1387C37.6272 8.10992 38.0232 8.5043 38.0232 8.99081V31.0131C38.0232 31.4996 37.6272 31.894 37.1387 31.894H7.06613C6.57764 31.894 6.18164 31.4996 6.18164 31.0131V1.06278ZM25.6404 30.1322H36.2542V9.8717H25.6404V30.1322ZM23.8714 1.94367H7.95062V30.1322H23.8714V1.94367Z" fill="#FC4C02"/>
<path fill-rule="evenodd" clip-rule="evenodd" d="M0.875977 5.46732C0.875977 4.98081 1.27198 4.58643 1.76046 4.58643H19.4502C19.9387 4.58643 20.3347 4.98081 20.3347 5.46732C20.3347 5.95382 19.9387 6.34821 19.4502 6.34821H1.76046C1.27198 6.34821 0.875977 5.95382 0.875977 5.46732ZM2.64495 8.99089C2.64495 8.50438 3.04095 8.10999 3.52944 8.10999H15.0278C15.5163 8.10999 15.9123 8.50438 15.9123 8.99089C15.9123 9.47739 15.5163 9.87178 15.0278 9.87178H3.52944C3.04095 9.87178 2.64495 9.47739 2.64495 8.99089ZM31.833 23.0852C31.3639 23.0852 30.9139 23.2708 30.5822 23.6012C30.2504 23.9316 30.0641 24.3797 30.0641 24.8469C30.0641 25.3142 30.2504 25.7623 30.5822 26.0927C30.9139 26.4231 31.3639 26.6087 31.833 26.6087C32.3022 26.6087 32.7521 26.4231 33.0839 26.0927C33.4156 25.7623 33.602 25.3142 33.602 24.8469C33.602 24.3797 33.4156 23.9316 33.0839 23.6012C32.7521 23.2708 32.3022 23.0852 31.833 23.0852ZM32.7175 28.2586C33.3243 28.1026 33.8841 27.7873 34.3348 27.3385C34.9982 26.6777 35.371 25.7815 35.371 24.8469C35.371 23.9124 34.9982 23.0162 34.3348 22.3554C33.6713 21.6946 32.7714 21.3234 31.833 21.3234C30.8947 21.3234 29.9948 21.6946 29.3313 22.3554C28.6678 23.0162 28.2951 23.9124 28.2951 24.8469C28.2951 25.7815 28.6678 26.6777 29.3313 27.3385C29.782 27.7873 30.3418 28.1026 30.9486 28.2586V31.0132C30.9486 31.4997 31.3446 31.8941 31.833 31.8941C32.3215 31.8941 32.7175 31.4997 32.7175 31.0132V28.2586Z" fill="#FC4C02"/>
</g>
<defs>
<clipPath id="clip0">
<rect x="0.875977" y="0.181885" width="37.1485" height="31.7121" fill="white"/>
</clipPath>
</defs>
</svg>
