<svg width="55" height="55" viewBox="0 0 55 55" fill="none" xmlns="http://www.w3.org/2000/svg">
<path d="M8.63135 26.649L24.238 17.0801" stroke="white" stroke-width="1.5" stroke-miterlimit="10" stroke-linecap="round" stroke-linejoin="round"/>
<path d="M46.1272 26.6493L31.5853 17.0803" stroke="white" stroke-width="1.5" stroke-miterlimit="10" stroke-linecap="round" stroke-linejoin="round"/>
<path d="M6 51.2361H50V26.6476H6V51.2361Z" stroke="#E94200" stroke-width="1.5" stroke-miterlimit="10" stroke-linecap="round" stroke-linejoin="round"/>
<path d="M15.0582 33.1165V44.7635" stroke="white" stroke-width="1.5" stroke-miterlimit="10" stroke-linecap="round" stroke-linejoin="round"/>
<path d="M21.5302 35.7048V42.1767" stroke="#E94200" stroke-width="1.5" stroke-miterlimit="10" stroke-linecap="round" stroke-linejoin="round"/>
<path d="M27.999 33.1165V44.7635" stroke="white" stroke-width="1.5" stroke-miterlimit="10" stroke-linecap="round" stroke-linejoin="round"/>
<path d="M34.4719 35.7048V42.1767" stroke="#E94200" stroke-width="1.5" stroke-miterlimit="10" stroke-linecap="round" stroke-linejoin="round"/>
<path d="M42.2329 33.1165V44.7635" stroke="white" stroke-width="1.5" stroke-miterlimit="10" stroke-linecap="round" stroke-linejoin="round"/>
<path d="M24.1154 14.9241C24.1246 15.9827 24.5538 16.9943 25.3086 17.7365C26.0634 18.4787 27.082 18.8908 28.1406 18.8822C29.1992 18.8908 30.2178 18.4787 30.9726 17.7365C31.7274 16.9943 32.1566 15.9827 32.1658 14.9241C32.1169 13.8669 31.6505 12.8724 30.8691 12.1587C30.0876 11.4451 29.055 11.0706 27.9977 11.1175V4" stroke="#E94200" stroke-width="1.5" stroke-miterlimit="10" stroke-linecap="round" stroke-linejoin="round"/>
</svg>
