<svg width="15" height="15" fill="none" xmlns="http://www.w3.org/2000/svg">
    <path
        d="M14.244 2.911c-.012-.927-.685-1.662-.685-1.662C12.167-.357 2.425-.474 1.32 1.25c0 0-.557.749-.588 1.664a.832.832 0 00-.522.264.794.794 0 00-.209.536v1.561c0 .165.052.326.149.461a.824.824 0 00.392.295c-.075 2.463-.014 5.033.102 6.312 0 .987.68.823.68.823h.637v1.065a.882.882 0 00.338.578c.185.142.42.21.654.186a.926.926 0 00.657-.185.883.883 0 00.34-.579v-1.065h7.408v1.065a.882.882 0 00.34.58.925.925 0 00.657.184.925.925 0 00.657-.185.882.882 0 00.34-.579v-1.065h.204s.8.107.85-.358c0-1.275.083-4.099.015-6.766a.82.82 0 00.42-.29.787.787 0 00.16-.477V3.711a.79.79 0 00-.217-.545.828.828 0 00-.54-.255zM3.8 11.908c-.21 0-.416-.06-.59-.175a1.044 1.044 0 01-.392-.466 1.014 1.014 0 01.23-1.13 1.088 1.088 0 011.16-.225c.194.078.36.211.477.382a1.02 1.02 0 01-.13 1.308 1.078 1.078 0 01-.75.306H3.8zm7.335 0c-.21 0-.416-.06-.59-.175a1.044 1.044 0 01-.393-.466 1.014 1.014 0 01.23-1.13 1.088 1.088 0 011.16-.225c.194.078.36.211.477.382a1.02 1.02 0 01-.13 1.307 1.079 1.079 0 01-.747.307h-.007zm1.351-4.541h-10.1V3.199h10.106l-.006 4.168z"
        fill="var(--icon-color, #ffffff)" />
</svg>