<svg width="96" height="32" viewBox="0 0 96 32" fill="none" xmlns="http://www.w3.org/2000/svg">
    <path
        d="M73.8595 19.1279C73.2561 19.7923 72.4735 20.2681 71.6059 20.4983C70.7383 20.7284 69.8227 20.703 68.9692 20.4251C68.1158 20.1471 67.3608 19.6286 66.7953 18.9317C66.2297 18.2349 65.8776 17.3895 65.7813 16.4973C65.6851 15.6051 65.8488 14.7042 66.2527 13.9028C66.6567 13.1014 67.2837 12.4339 68.0582 11.9804C68.8328 11.5269 69.7219 11.3069 70.6187 11.3468C71.5154 11.3867 72.3815 11.6848 73.1127 12.2053L75.6518 8.63423C74.2649 7.64613 72.6271 7.06962 70.9269 6.97104C69.2267 6.87246 67.5332 7.25583 66.0413 8.07702C64.5494 8.89821 63.3198 10.1238 62.4939 11.6129C61.6681 13.1019 61.2795 14.7938 61.373 16.4938C61.4665 18.1939 62.0383 19.833 63.0225 21.2225C64.0067 22.612 65.3633 23.6954 66.9363 24.3481C68.5092 25.0008 70.2346 25.1962 71.9137 24.9119C73.5929 24.6275 75.1576 23.8749 76.4278 22.7408L73.8595 19.1279Z"
        fill="var(--icon-color-text, #000000)" />
    <path
        d="M53.2923 7.49117L50.7621 11.0518C52.03 11.1822 53.1993 11.7945 54.0286 12.762C54.858 13.7296 55.284 14.9786 55.2187 16.2512C55.1535 17.5237 54.6019 18.7226 53.6779 19.6003C52.7539 20.478 51.5281 20.9674 50.2536 20.9676V3.03015H46.0408V6.95734C43.6425 6.95734 41.3425 7.9098 39.6466 9.6052C37.9508 11.3006 36.998 13.6001 36.998 15.9977C36.998 18.3954 37.9508 20.6948 39.6466 22.3902C41.3425 24.0856 43.6425 25.0381 46.0408 25.0381V29.1094H50.2506V25.0381C52.3815 25.0404 54.4448 24.2898 56.0758 22.9187C57.7069 21.5477 58.8008 19.6445 59.1643 17.5454C59.5279 15.4462 59.1377 13.2861 58.0627 11.4467C56.9877 9.60722 55.297 8.20676 53.2894 7.49266L53.2923 7.49117ZM41.0656 15.9988C41.0656 14.6804 41.5894 13.4159 42.5218 12.4836C43.4543 11.5512 44.719 11.0273 46.0378 11.0271V20.9691C44.7192 20.9691 43.4546 20.4454 42.5222 19.5134C41.5897 18.5813 41.0658 17.3171 41.0656 15.9988"
        fill="var(--icon-color-text, #000000)" />
    <path
        d="M83.6187 24.6763H79.0176V7.31458H83.6187V24.6763ZM84.2042 15.997L90.4288 7.31756H95.2144L88.9412 15.873L95.5467 24.6771H90.6925L84.2057 15.9977"
        fill="var(--icon-color-text, #000000)" />
    <path
        d="M12.5059 9.49679H30.631C29.7315 7.48135 28.4258 5.67309 26.7955 4.18507C25.1653 2.69706 23.2455 1.56129 21.1562 0.848755L12.5059 9.49679Z"
        fill="var(--icon-color-logo, #FC4C02)" />
    <path
        d="M31.5189 12.0475H9.42744C9.17531 12.0475 8.92885 11.9727 8.71922 11.8327C8.50959 11.6926 8.3462 11.4936 8.24971 11.2607C8.15323 11.0278 8.12799 10.7716 8.17717 10.5244C8.22636 10.2772 8.34776 10.0501 8.52604 9.87185L18.2428 0.157643C15.684 -0.204149 13.0757 0.0589755 10.6409 0.924524C8.206 1.79007 6.01704 3.2323 4.26117 5.12785C2.50529 7.02341 1.23474 9.31591 0.558163 11.8093C-0.118413 14.3027 -0.180885 16.9229 0.376087 19.4457H22.7057C22.9579 19.4457 23.2043 19.5204 23.414 19.6605C23.6236 19.8005 23.787 19.9996 23.8835 20.2324C23.9799 20.4653 24.0052 20.7216 23.956 20.9688C23.9068 21.216 23.7854 21.4431 23.6071 21.6213L13.4326 31.7932C16.0549 32.2187 18.7418 31.9853 21.2514 31.1141C23.761 30.2428 26.0144 28.7611 27.8085 26.8024C29.6026 24.8436 30.8811 22.4695 31.5288 19.8937C32.1766 17.318 32.1731 14.6216 31.5189 12.0475V12.0475Z"
        fill="var(--icon-color-logo, #FC4C02)" />
    <path
        d="M19.6304 21.993H1.16699C2.01199 24.0773 3.28573 25.9607 4.90562 27.5211C6.52552 29.0815 8.45539 30.2841 10.5701 31.051L19.6304 21.993Z"
        fill="var(--icon-color-logo, #FC4C02)" />
</svg>