<svg width="38" height="35" viewBox="0 0 38 35" fill="none" xmlns="http://www.w3.org/2000/svg">
<path d="M1 23.708H28.7719M11.4145 33.9998H18.3574V28.1188H11.4145V33.9998ZM9.33156 33.9998H20.4403H9.33156Z" stroke="#E84E0E" stroke-linecap="round" stroke-linejoin="round"/>
<path d="M28.7719 16.969V26.3948C28.7719 27.2799 28.081 27.9959 27.2291 27.9959H2.54273C1.69083 27.9959 1 27.2799 1 26.3948V9.01346C1 8.12837 1.69083 7.41235 2.54273 7.41235H22.3302" stroke="#E84E0E" stroke-linecap="round" stroke-linejoin="round"/>
<path d="M19.9487 16.181H10.1211M36.2624 8.77577C37.0527 7.92155 37.4967 6.76299 37.4967 5.55494C37.4967 4.3469 37.0527 3.18833 36.2624 2.33411C35.4721 1.47989 34.4002 1 33.2826 1C32.1649 1 31.093 1.47989 30.3027 2.33411L25.5644 7.45557V13.9048H31.5311L36.2624 8.77577ZM33.2861 5.55874L23.4585 16.181L33.2861 5.55874ZM33.988 10.8699H28.3723H33.988Z" stroke="var(--color-main-text, white)" stroke-linecap="round" stroke-linejoin="round"/>
</svg>
